<svg width="17" height="16" viewBox="0 0 17 16" fill="none" xmlns="http://www.w3.org/2000/svg">
<path d="M10.9699 9.5C10.0729 9.5 9.64192 10 8.16992 10C6.69792 10 6.26992 9.5 5.36992 9.5C4.25609 9.50027 3.18796 9.94285 2.40037 10.7304C1.61277 11.518 1.17019 12.5862 1.16992 13.7L1.16992 14.5C1.16992 14.8978 1.32796 15.2794 1.60926 15.5607C1.89057 15.842 2.2721 16 2.66992 16H13.6699C14.0677 16 14.4493 15.842 14.7306 15.5607C15.0119 15.2794 15.1699 14.8978 15.1699 14.5V13.7C15.1699 11.381 13.2889 9.5 10.9699 9.5ZM13.6699 14.5H2.66992V13.7C2.66992 12.213 3.88192 11 5.36992 11C5.82592 11 6.56692 11.5 8.16992 11.5C9.78592 11.5 10.5099 11 10.9699 11C12.4569 11 13.6699 12.213 13.6699 13.7V14.5ZM8.16992 9C9.34697 8.97518 10.4674 8.49018 11.2911 7.64897C12.1148 6.80776 12.576 5.67731 12.576 4.5C12.576 3.32269 12.1148 2.19225 11.2911 1.35103C10.4674 0.509823 9.34697 0.0248157 8.16992 0C6.99287 0.0248157 5.8724 0.509823 5.04874 1.35103C4.22508 2.19225 3.7638 3.32269 3.7638 4.5C3.7638 5.67731 4.22508 6.80776 5.04874 7.64897C5.8724 8.49018 6.99287 8.97518 8.16992 9ZM8.16992 1.5C9.82292 1.5 11.1699 2.847 11.1699 4.5C11.1699 6.153 9.82292 7.5 8.16992 7.5C6.51692 7.5 5.16992 6.153 5.16992 4.5C5.16992 2.847 6.51692 1.5 8.16992 1.5Z" fill="#000"/>
</svg>
