<svg width="48" height="49" viewBox="0 0 48 49" fill="none" xmlns="http://www.w3.org/2000/svg">
<g clip-path="url(#clip0_62_1406)">
<path d="M37.9999 17.348V14.5C37.9999 10.787 36.5249 7.22601 33.8994 4.60051C31.2739 1.975 27.7129 0.5 23.9999 0.5C20.2868 0.5 16.7259 1.975 14.1004 4.60051C11.4749 7.22601 9.99988 10.787 9.99988 14.5V17.348C8.2186 18.1254 6.70246 19.405 5.63688 21.0304C4.57129 22.6558 4.00243 24.5565 3.99988 26.5V38.5C4.00305 41.1512 5.05764 43.6929 6.93232 45.5676C8.80699 47.4422 11.3487 48.4968 13.9999 48.5H33.9999C36.6511 48.4968 39.1928 47.4422 41.0674 45.5676C42.9421 43.6929 43.9967 41.1512 43.9999 38.5V26.5C43.9973 24.5565 43.4285 22.6558 42.3629 21.0304C41.2973 19.405 39.7812 18.1254 37.9999 17.348V17.348ZM13.9999 14.5C13.9999 11.8478 15.0534 9.3043 16.9288 7.42893C18.8042 5.55357 21.3477 4.5 23.9999 4.5C26.652 4.5 29.1956 5.55357 31.0709 7.42893C32.9463 9.3043 33.9999 11.8478 33.9999 14.5V16.5H13.9999V14.5ZM39.9999 38.5C39.9999 40.0913 39.3677 41.6174 38.2425 42.7426C37.1173 43.8679 35.5912 44.5 33.9999 44.5H13.9999C12.4086 44.5 10.8825 43.8679 9.75724 42.7426C8.63202 41.6174 7.99988 40.0913 7.99988 38.5V26.5C7.99988 24.9087 8.63202 23.3826 9.75724 22.2574C10.8825 21.1321 12.4086 20.5 13.9999 20.5H33.9999C35.5912 20.5 37.1173 21.1321 38.2425 22.2574C39.3677 23.3826 39.9999 24.9087 39.9999 26.5V38.5Z" fill="black"/>
<path d="M23.9999 28.4995C23.4695 28.4995 22.9607 28.7102 22.5857 29.0853C22.2106 29.4604 21.9999 29.9691 21.9999 30.4995V34.4995C21.9999 35.0299 22.2106 35.5386 22.5857 35.9137C22.9607 36.2888 23.4695 36.4995 23.9999 36.4995C24.5303 36.4995 25.039 36.2888 25.4141 35.9137C25.7892 35.5386 25.9999 35.0299 25.9999 34.4995V30.4995C25.9999 29.9691 25.7892 29.4604 25.4141 29.0853C25.039 28.7102 24.5303 28.4995 23.9999 28.4995Z" fill="black"/>
</g>
<defs>
<clipPath id="clip0_62_1406">
<rect width="48" height="48" fill="white" transform="translate(0 0.5)"/>
</clipPath>
</defs>
</svg>
