<svg width="260" height="161" viewBox="0 0 260 161" fill="none" xmlns="http://www.w3.org/2000/svg">
<rect width="260" height="160.667" rx="10" fill="white"/>
<path d="M94.8849 64V53.8182H101.746V55.593H97.0376V58.0192H101.393V59.794H97.0376V62.2251H101.766V64H94.8849ZM110.537 56.3636L107.867 64H105.481L102.811 56.3636H105.048L106.634 61.8274H106.714L108.295 56.3636H110.537ZM113.593 64.1442C113.106 64.1442 112.672 64.0597 112.29 63.8906C111.909 63.7183 111.608 63.4647 111.386 63.13C111.167 62.7919 111.058 62.371 111.058 61.8672C111.058 61.4429 111.135 61.0866 111.291 60.7983C111.447 60.5099 111.659 60.2779 111.928 60.1023C112.196 59.9266 112.501 59.794 112.842 59.7045C113.187 59.6151 113.548 59.5521 113.926 59.5156C114.37 59.4692 114.728 59.4261 115 59.3864C115.272 59.3433 115.469 59.2803 115.592 59.1974C115.714 59.1146 115.776 58.992 115.776 58.8295V58.7997C115.776 58.4848 115.676 58.2412 115.477 58.0689C115.282 57.8965 115.003 57.8104 114.642 57.8104C114.261 57.8104 113.958 57.8949 113.732 58.0639C113.507 58.2296 113.358 58.4384 113.285 58.6903L111.326 58.5312C111.425 58.0672 111.621 57.6662 111.913 57.3281C112.204 56.9867 112.58 56.7249 113.041 56.5426C113.505 56.357 114.042 56.2642 114.652 56.2642C115.076 56.2642 115.482 56.3139 115.87 56.4134C116.261 56.5128 116.607 56.6669 116.909 56.8757C117.214 57.0845 117.454 57.353 117.63 57.6811C117.806 58.0059 117.893 58.3954 117.893 58.8494V64H115.885V62.9411H115.825C115.703 63.1797 115.539 63.3902 115.333 63.5724C115.128 63.7514 114.881 63.8923 114.592 63.995C114.304 64.0945 113.971 64.1442 113.593 64.1442ZM114.2 62.6825C114.511 62.6825 114.786 62.6212 115.025 62.4986C115.263 62.3726 115.451 62.2036 115.587 61.9915C115.723 61.7794 115.79 61.5391 115.79 61.2706V60.4602C115.724 60.5033 115.633 60.5431 115.517 60.5795C115.404 60.6127 115.277 60.6442 115.134 60.674C114.992 60.7005 114.849 60.7254 114.707 60.7486C114.564 60.7685 114.435 60.7867 114.319 60.8033C114.07 60.8397 113.853 60.8977 113.668 60.9773C113.482 61.0568 113.338 61.1645 113.235 61.3004C113.132 61.433 113.081 61.5987 113.081 61.7976C113.081 62.0859 113.185 62.3063 113.394 62.4588C113.606 62.608 113.875 62.6825 114.2 62.6825ZM121.654 53.8182V64H119.537V53.8182H121.654ZM128.248 60.7486V56.3636H130.366V64H128.333V62.6129H128.253C128.081 63.0604 127.794 63.42 127.393 63.6918C126.995 63.9635 126.51 64.0994 125.936 64.0994C125.426 64.0994 124.977 63.9834 124.589 63.7514C124.201 63.5194 123.898 63.1896 123.679 62.7621C123.464 62.3345 123.354 61.8224 123.351 61.2259V56.3636H125.469V60.848C125.472 61.2988 125.593 61.6551 125.832 61.9169C126.07 62.1787 126.39 62.3097 126.791 62.3097C127.047 62.3097 127.285 62.2517 127.507 62.1357C127.729 62.0163 127.908 61.8407 128.044 61.6087C128.183 61.3767 128.251 61.09 128.248 60.7486ZM134.238 64.1442C133.75 64.1442 133.316 64.0597 132.935 63.8906C132.554 63.7183 132.252 63.4647 132.03 63.13C131.811 62.7919 131.702 62.371 131.702 61.8672C131.702 61.4429 131.78 61.0866 131.936 60.7983C132.092 60.5099 132.304 60.2779 132.572 60.1023C132.841 59.9266 133.145 59.794 133.487 59.7045C133.832 59.6151 134.193 59.5521 134.571 59.5156C135.015 59.4692 135.373 59.4261 135.645 59.3864C135.916 59.3433 136.114 59.2803 136.236 59.1974C136.359 59.1146 136.42 58.992 136.42 58.8295V58.7997C136.42 58.4848 136.321 58.2412 136.122 58.0689C135.926 57.8965 135.648 57.8104 135.287 57.8104C134.905 57.8104 134.602 57.8949 134.377 58.0639C134.151 58.2296 134.002 58.4384 133.929 58.6903L131.971 58.5312C132.07 58.0672 132.266 57.6662 132.557 57.3281C132.849 56.9867 133.225 56.7249 133.686 56.5426C134.15 56.357 134.687 56.2642 135.297 56.2642C135.721 56.2642 136.127 56.3139 136.515 56.4134C136.906 56.5128 137.252 56.6669 137.554 56.8757C137.859 57.0845 138.099 57.353 138.275 57.6811C138.45 58.0059 138.538 58.3954 138.538 58.8494V64H136.529V62.9411H136.47C136.347 63.1797 136.183 63.3902 135.978 63.5724C135.772 63.7514 135.525 63.8923 135.237 63.995C134.949 64.0945 134.615 64.1442 134.238 64.1442ZM134.844 62.6825C135.156 62.6825 135.431 62.6212 135.669 62.4986C135.908 62.3726 136.095 62.2036 136.231 61.9915C136.367 61.7794 136.435 61.5391 136.435 61.2706V60.4602C136.369 60.5033 136.278 60.5431 136.162 60.5795C136.049 60.6127 135.921 60.6442 135.779 60.674C135.636 60.7005 135.494 60.7254 135.351 60.7486C135.209 60.7685 135.079 60.7867 134.963 60.8033C134.715 60.8397 134.498 60.8977 134.312 60.9773C134.127 61.0568 133.982 61.1645 133.88 61.3004C133.777 61.433 133.725 61.5987 133.725 61.7976C133.725 62.0859 133.83 62.3063 134.039 62.4588C134.251 62.608 134.519 62.6825 134.844 62.6825ZM144.243 56.3636V57.9545H139.644V56.3636H144.243ZM140.688 54.5341H142.806V61.6534C142.806 61.849 142.836 62.0014 142.896 62.1108C142.955 62.2169 143.038 62.2914 143.144 62.3345C143.254 62.3776 143.379 62.3991 143.522 62.3991C143.621 62.3991 143.721 62.3909 143.82 62.3743C143.92 62.3544 143.996 62.3395 144.049 62.3295L144.382 63.9055C144.276 63.9387 144.127 63.9768 143.935 64.0199C143.742 64.0663 143.509 64.0945 143.234 64.1044C142.723 64.1243 142.276 64.0563 141.891 63.9006C141.51 63.7448 141.214 63.5028 141.001 63.1747C140.789 62.8466 140.685 62.4323 140.688 61.9318V54.5341ZM145.623 64V56.3636H147.74V64H145.623ZM146.686 55.3793C146.372 55.3793 146.101 55.2749 145.876 55.0661C145.654 54.8539 145.543 54.6004 145.543 54.3054C145.543 54.0137 145.654 53.7635 145.876 53.5547C146.101 53.3426 146.372 53.2365 146.686 53.2365C147.001 53.2365 147.27 53.3426 147.492 53.5547C147.717 53.7635 147.83 54.0137 147.83 54.3054C147.83 54.6004 147.717 54.8539 147.492 55.0661C147.27 55.2749 147.001 55.3793 146.686 55.3793ZM152.887 64.1491C152.115 64.1491 151.447 63.9851 150.884 63.657C150.324 63.3255 149.891 62.8648 149.586 62.2749C149.281 61.6816 149.129 60.9938 149.129 60.2116C149.129 59.4228 149.281 58.7334 149.586 58.1435C149.891 57.5502 150.324 57.0895 150.884 56.7614C151.447 56.4299 152.115 56.2642 152.887 56.2642C153.66 56.2642 154.326 56.4299 154.886 56.7614C155.449 57.0895 155.883 57.5502 156.188 58.1435C156.493 58.7334 156.646 59.4228 156.646 60.2116C156.646 60.9938 156.493 61.6816 156.188 62.2749C155.883 62.8648 155.449 63.3255 154.886 63.657C154.326 63.9851 153.66 64.1491 152.887 64.1491ZM152.897 62.5085C153.249 62.5085 153.542 62.4091 153.777 62.2102C154.012 62.008 154.19 61.733 154.309 61.3849C154.432 61.0369 154.493 60.6409 154.493 60.1967C154.493 59.7526 154.432 59.3565 154.309 59.0085C154.19 58.6605 154.012 58.3854 153.777 58.1832C153.542 57.9811 153.249 57.88 152.897 57.88C152.543 57.88 152.244 57.9811 152.002 58.1832C151.764 58.3854 151.583 58.6605 151.46 59.0085C151.341 59.3565 151.281 59.7526 151.281 60.1967C151.281 60.6409 151.341 61.0369 151.46 61.3849C151.583 61.733 151.764 62.008 152.002 62.2102C152.244 62.4091 152.543 62.5085 152.897 62.5085ZM160.141 59.5852V64H158.023V56.3636H160.041V57.7109H160.131C160.3 57.2668 160.583 56.9155 160.981 56.657C161.379 56.3951 161.861 56.2642 162.428 56.2642C162.958 56.2642 163.42 56.3802 163.815 56.6122C164.209 56.8442 164.516 57.1757 164.735 57.6065C164.953 58.0341 165.063 58.5445 165.063 59.1378V64H162.945V59.5156C162.948 59.0483 162.829 58.6837 162.587 58.4219C162.345 58.1567 162.012 58.0241 161.588 58.0241C161.302 58.0241 161.051 58.0855 160.832 58.2081C160.616 58.3307 160.447 58.5097 160.325 58.745C160.205 58.977 160.144 59.2571 160.141 59.5852Z" fill="black"/>
<g clip-path="url(#clip0_67_722)">
<path d="M62 107.033L56.4667 110.367C56.2222 110.522 55.9667 110.589 55.7 110.567C55.4333 110.544 55.2 110.455 55 110.3C54.8 110.144 54.6445 109.95 54.5333 109.717C54.4222 109.484 54.4 109.223 54.4667 108.933L55.9333 102.633L51.0333 98.3999C50.8111 98.1999 50.6725 97.9719 50.6173 97.7159C50.5622 97.4599 50.5787 97.2102 50.6667 96.9666C50.7547 96.723 50.888 96.523 51.0667 96.3666C51.2453 96.2102 51.4898 96.1102 51.8 96.0666L58.2667 95.4999L60.7667 89.5666C60.8778 89.2999 61.0502 89.0999 61.284 88.9666C61.5178 88.8333 61.7565 88.7666 62 88.7666C62.2436 88.7666 62.4822 88.8333 62.716 88.9666C62.9498 89.0999 63.1222 89.2999 63.2333 89.5666L65.7333 95.4999L72.2 96.0666C72.5111 96.111 72.7556 96.211 72.9333 96.3666C73.1111 96.5222 73.2445 96.7222 73.3333 96.9666C73.4222 97.211 73.4391 97.4613 73.384 97.7173C73.3289 97.9733 73.1898 98.2008 72.9667 98.3999L68.0667 102.633L69.5333 108.933C69.6 109.222 69.5778 109.483 69.4667 109.717C69.3556 109.951 69.2 110.145 69 110.3C68.8 110.455 68.5667 110.543 68.3 110.567C68.0333 110.59 67.7778 110.523 67.5333 110.367L62 107.033Z" fill="#FFD36E"/>
</g>
<g clip-path="url(#clip1_67_722)">
<path d="M96 107.033L90.4667 110.367C90.2222 110.522 89.9667 110.589 89.7 110.567C89.4333 110.544 89.2 110.455 89 110.3C88.8 110.144 88.6445 109.95 88.5333 109.717C88.4222 109.484 88.4 109.223 88.4667 108.933L89.9333 102.633L85.0333 98.3999C84.8111 98.1999 84.6725 97.9719 84.6173 97.7159C84.5622 97.4599 84.5787 97.2102 84.6667 96.9666C84.7547 96.723 84.888 96.523 85.0667 96.3666C85.2453 96.2102 85.4898 96.1102 85.8 96.0666L92.2667 95.4999L94.7667 89.5666C94.8778 89.2999 95.0502 89.0999 95.284 88.9666C95.5178 88.8333 95.7565 88.7666 96 88.7666C96.2436 88.7666 96.4822 88.8333 96.716 88.9666C96.9498 89.0999 97.1222 89.2999 97.2333 89.5666L99.7333 95.4999L106.2 96.0666C106.511 96.111 106.756 96.211 106.933 96.3666C107.111 96.5222 107.244 96.7222 107.333 96.9666C107.422 97.211 107.439 97.4613 107.384 97.7173C107.329 97.9733 107.19 98.2008 106.967 98.3999L102.067 102.633L103.533 108.933C103.6 109.222 103.578 109.483 103.467 109.717C103.356 109.951 103.2 110.145 103 110.3C102.8 110.455 102.567 110.543 102.3 110.567C102.033 110.59 101.778 110.523 101.533 110.367L96 107.033Z" fill="#FFD36E"/>
</g>
<g clip-path="url(#clip2_67_722)">
<path d="M130 107.033L124.467 110.367C124.222 110.522 123.967 110.589 123.7 110.567C123.433 110.544 123.2 110.455 123 110.3C122.8 110.144 122.644 109.95 122.533 109.717C122.422 109.484 122.4 109.223 122.467 108.933L123.933 102.633L119.033 98.3999C118.811 98.1999 118.672 97.9719 118.617 97.7159C118.562 97.4599 118.579 97.2102 118.667 96.9666C118.755 96.723 118.888 96.523 119.067 96.3666C119.245 96.2102 119.49 96.1102 119.8 96.0666L126.267 95.4999L128.767 89.5666C128.878 89.2999 129.05 89.0999 129.284 88.9666C129.518 88.8333 129.756 88.7666 130 88.7666C130.244 88.7666 130.482 88.8333 130.716 88.9666C130.95 89.0999 131.122 89.2999 131.233 89.5666L133.733 95.4999L140.2 96.0666C140.511 96.111 140.756 96.211 140.933 96.3666C141.111 96.5222 141.244 96.7222 141.333 96.9666C141.422 97.211 141.439 97.4613 141.384 97.7173C141.329 97.9733 141.19 98.2008 140.967 98.3999L136.067 102.633L137.533 108.933C137.6 109.222 137.578 109.483 137.467 109.717C137.356 109.951 137.2 110.145 137 110.3C136.8 110.455 136.567 110.543 136.3 110.567C136.033 110.59 135.778 110.523 135.533 110.367L130 107.033Z" fill="#FFD36E"/>
</g>
<g clip-path="url(#clip3_67_722)">
<path d="M164 107.033L158.467 110.367C158.222 110.522 157.967 110.589 157.7 110.567C157.433 110.544 157.2 110.455 157 110.3C156.8 110.144 156.644 109.95 156.533 109.717C156.422 109.484 156.4 109.223 156.467 108.933L157.933 102.633L153.033 98.3999C152.811 98.1999 152.672 97.9719 152.617 97.7159C152.562 97.4599 152.579 97.2102 152.667 96.9666C152.755 96.723 152.888 96.523 153.067 96.3666C153.245 96.2102 153.49 96.1102 153.8 96.0666L160.267 95.4999L162.767 89.5666C162.878 89.2999 163.05 89.0999 163.284 88.9666C163.518 88.8333 163.756 88.7666 164 88.7666C164.244 88.7666 164.482 88.8333 164.716 88.9666C164.95 89.0999 165.122 89.2999 165.233 89.5666L167.733 95.4999L174.2 96.0666C174.511 96.111 174.756 96.211 174.933 96.3666C175.111 96.5222 175.244 96.7222 175.333 96.9666C175.422 97.211 175.439 97.4613 175.384 97.7173C175.329 97.9733 175.19 98.2008 174.967 98.3999L170.067 102.633L171.533 108.933C171.6 109.222 171.578 109.483 171.467 109.717C171.356 109.951 171.2 110.145 171 110.3C170.8 110.455 170.567 110.543 170.3 110.567C170.033 110.59 169.778 110.523 169.533 110.367L164 107.033Z" fill="#FFD36E"/>
</g>
<g clip-path="url(#clip4_67_722)">
<path d="M198.258 106.605L198 106.45L197.742 106.605L192.209 109.938L192.209 109.938L192.198 109.945C192.038 110.047 191.89 110.081 191.742 110.068C191.566 110.054 191.426 109.998 191.307 109.905C191.17 109.798 191.063 109.666 190.985 109.502C190.929 109.386 190.909 109.243 190.954 109.046C190.954 109.046 190.954 109.046 190.954 109.045L192.42 102.747L192.489 102.452L192.26 102.255L187.364 98.0252C187.211 97.8862 187.136 97.7487 187.106 97.6107C187.071 97.4453 187.081 97.2909 187.137 97.1365C187.199 96.9651 187.287 96.8385 187.396 96.7428C187.48 96.6692 187.621 96.5984 187.857 96.5635L194.31 95.998L194.61 95.9717L194.727 95.6941L197.227 89.7607L197.228 89.7589C197.3 89.5864 197.401 89.4753 197.532 89.4009C197.698 89.306 197.852 89.2666 198 89.2666C198.148 89.2666 198.302 89.306 198.468 89.4009C198.599 89.4753 198.7 89.5864 198.772 89.7589L198.773 89.7607L201.273 95.6941L201.39 95.9717L201.69 95.998L208.142 96.5634C208.38 96.5992 208.521 96.6703 208.604 96.7429C208.712 96.8375 208.8 96.9641 208.863 97.1375C208.92 97.2929 208.931 97.4474 208.895 97.612C208.866 97.7494 208.79 97.8863 208.636 98.0244L203.74 102.255L203.511 102.452L203.58 102.747L205.046 109.046C205.091 109.241 205.071 109.385 205.015 109.503C204.937 109.667 204.831 109.799 204.694 109.904C204.575 109.997 204.434 110.053 204.257 110.068C204.109 110.081 203.963 110.048 203.803 109.945L203.803 109.945L203.791 109.938L198.258 106.605Z" stroke="#606060"/>
</g>
<mask id="mask0_67_722" style="mask-type:luminance" maskUnits="userSpaceOnUse" x="168" y="93" width="82" height="82">
<path d="M250 93H168V175H250V93Z" fill="white"/>
</mask>
<g mask="url(#mask0_67_722)">
<path d="M196.956 145.275C196.188 144.25 195.419 142.456 193.881 140.15C193.113 138.869 190.806 136.306 190.038 135.281C189.525 134.256 189.525 133.744 189.781 132.719C190.038 131.181 191.575 129.9 193.369 129.9C194.65 129.9 195.931 130.925 196.956 131.694C197.469 132.206 198.238 133.231 198.75 133.744C199.263 134.256 199.263 134.513 199.775 135.025C200.288 135.794 200.544 136.306 200.288 135.281C200.031 134 199.775 131.95 199.263 129.9C199.006 128.363 198.75 128.106 198.494 127.081C198.238 125.8 197.981 125.031 197.725 123.75C197.469 122.981 197.213 120.931 196.956 119.906C196.7 118.625 196.7 116.319 197.725 115.294C198.494 114.525 200.031 114.269 201.056 114.781C202.338 115.55 203.106 117.344 203.363 118.113C203.875 119.394 204.388 121.188 204.644 123.238C205.156 125.8 205.925 129.644 205.925 130.413C205.925 129.388 205.669 127.594 205.925 126.569C206.181 125.8 206.694 124.775 207.719 124.519C208.488 124.263 209.256 124.263 210.025 124.263C210.794 124.519 211.563 125.031 212.075 125.544C213.1 127.081 213.1 130.413 213.1 130.156C213.356 129.131 213.356 127.081 213.869 126.056C214.125 125.544 215.15 125.031 215.663 124.775C216.431 124.519 217.456 124.519 218.225 124.775C218.738 124.775 219.763 125.544 220.019 126.056C220.531 126.825 220.788 129.388 221.044 130.413C221.044 130.669 221.3 129.388 221.813 128.619C222.838 127.081 226.425 126.569 226.681 130.156C226.681 131.95 226.681 131.694 226.681 132.975C226.681 134.256 226.681 135.025 226.681 136.05C226.681 137.075 226.425 139.381 226.169 140.406C225.913 141.175 225.144 142.969 224.375 143.994C224.375 143.994 221.556 147.069 221.3 148.606C221.044 150.144 221.044 150.144 221.044 151.169C221.044 152.194 221.3 153.475 221.3 153.475C221.3 153.475 219.25 153.731 218.225 153.475C217.2 153.219 215.919 151.425 215.663 150.656C215.15 149.888 214.381 149.888 213.869 150.656C213.356 151.681 212.075 153.475 211.05 153.475C209.256 153.731 205.669 153.475 203.106 153.475C203.106 153.475 203.619 150.913 202.594 149.888C201.825 149.119 200.544 147.838 199.775 147.069L196.956 145.275Z" fill="white"/>
</g>
<mask id="mask1_67_722" style="mask-type:luminance" maskUnits="userSpaceOnUse" x="168" y="93" width="82" height="82">
<path d="M250 93H168V175H250V93Z" fill="white"/>
</mask>
<g mask="url(#mask1_67_722)">
<path d="M196.956 145.275C196.188 144.25 195.419 142.456 193.881 140.15C193.113 138.869 190.806 136.306 190.038 135.281C189.525 134.256 189.525 133.744 189.781 132.719C190.038 131.181 191.575 129.9 193.369 129.9C194.65 129.9 195.931 130.925 196.956 131.694C197.469 132.206 198.238 133.231 198.75 133.744C199.263 134.256 199.263 134.513 199.775 135.025C200.288 135.794 200.544 136.306 200.288 135.281C200.031 134 199.775 131.95 199.263 129.9C199.006 128.363 198.75 128.106 198.494 127.081C198.238 125.8 197.981 125.031 197.725 123.75C197.469 122.981 197.213 120.931 196.956 119.906C196.7 118.625 196.7 116.319 197.725 115.294C198.494 114.525 200.031 114.269 201.056 114.781C202.338 115.55 203.106 117.344 203.363 118.113C203.875 119.394 204.388 121.188 204.644 123.238C205.156 125.8 205.925 129.644 205.925 130.413C205.925 129.388 205.669 127.594 205.925 126.569C206.181 125.8 206.694 124.775 207.719 124.519C208.488 124.263 209.256 124.263 210.025 124.263C210.794 124.519 211.563 125.031 212.075 125.544C213.1 127.081 213.1 130.413 213.1 130.156C213.356 129.131 213.356 127.081 213.869 126.056C214.125 125.544 215.15 125.031 215.663 124.775C216.431 124.519 217.456 124.519 218.225 124.775C218.738 124.775 219.763 125.544 220.019 126.056C220.531 126.825 220.788 129.388 221.044 130.413C221.044 130.669 221.3 129.388 221.813 128.619C222.838 127.081 226.425 126.569 226.681 130.156C226.681 131.95 226.681 131.694 226.681 132.975C226.681 134.256 226.681 135.025 226.681 136.05C226.681 137.075 226.425 139.381 226.169 140.406C225.913 141.175 225.144 142.969 224.375 143.994C224.375 143.994 221.556 147.069 221.3 148.606C221.044 150.144 221.044 150.144 221.044 151.169C221.044 152.194 221.3 153.475 221.3 153.475C221.3 153.475 219.25 153.731 218.225 153.475C217.2 153.219 215.919 151.425 215.663 150.656C215.15 149.888 214.381 149.888 213.869 150.656C213.356 151.681 212.075 153.475 211.05 153.475C209.256 153.731 205.669 153.475 203.106 153.475C203.106 153.475 203.619 150.913 202.594 149.888C201.825 149.119 200.544 147.838 199.775 147.069L196.956 145.275Z" stroke="black" stroke-width="0.75" stroke-linecap="round" stroke-linejoin="round"/>
</g>
<mask id="mask2_67_722" style="mask-type:luminance" maskUnits="userSpaceOnUse" x="168" y="93" width="82" height="82">
<path d="M250 93H168V175H250V93Z" fill="white"/>
</mask>
<g mask="url(#mask2_67_722)">
<path d="M218.225 146.043V137.331" stroke="black" stroke-width="0.75" stroke-linecap="round"/>
</g>
<mask id="mask3_67_722" style="mask-type:luminance" maskUnits="userSpaceOnUse" x="168" y="93" width="82" height="82">
<path d="M250 93H168V175H250V93Z" fill="white"/>
</mask>
<g mask="url(#mask3_67_722)">
<path d="M213.1 146.043L212.844 137.331" stroke="black" stroke-width="0.75" stroke-linecap="round"/>
</g>
<mask id="mask4_67_722" style="mask-type:luminance" maskUnits="userSpaceOnUse" x="168" y="93" width="82" height="82">
<path d="M250 93H168V175H250V93Z" fill="white"/>
</mask>
<g mask="url(#mask4_67_722)">
<path d="M207.975 137.331V146.043" stroke="black" stroke-width="0.75" stroke-linecap="round"/>
</g>
<path d="M196.5 81V66M206 84.5L209.5 76M212.5 91.5L229.5 81M188.5 84.5L182.5 78.5M226 101.5L214 99.5" stroke="#FFD36E" stroke-linecap="round"/>
<defs>
<clipPath id="clip0_67_722">
<rect width="24" height="22.6667" fill="white" transform="translate(50 88)"/>
</clipPath>
<clipPath id="clip1_67_722">
<rect width="24" height="22.6667" fill="white" transform="translate(84 88)"/>
</clipPath>
<clipPath id="clip2_67_722">
<rect width="24" height="22.6667" fill="white" transform="translate(118 88)"/>
</clipPath>
<clipPath id="clip3_67_722">
<rect width="24" height="22.6667" fill="white" transform="translate(152 88)"/>
</clipPath>
<clipPath id="clip4_67_722">
<rect width="24" height="22.6667" fill="white" transform="translate(186 88)"/>
</clipPath>
</defs>
</svg>
