<svg width="397" height="202" viewBox="0 0 397 202" fill="none" xmlns="http://www.w3.org/2000/svg">
<rect x="0.5" y="0.5" width="396" height="200.59" rx="7.5" fill="white"/>
<rect x="0.5" y="0.5" width="396" height="200.59" rx="7.5" stroke="#E5E5E5"/>
<path d="M32.5 50H27.1136V32.5455H32.7386C34.4318 32.5455 35.8807 32.8949 37.0852 33.5938C38.2898 34.2869 39.2131 35.2841 39.8551 36.5852C40.4972 37.8807 40.8182 39.4318 40.8182 41.2386C40.8182 43.0568 40.4943 44.6222 39.8466 45.9347C39.1989 47.2415 38.2557 48.2472 37.017 48.9517C35.7784 49.6506 34.2727 50 32.5 50ZM29.2273 48.125H32.3636C33.8068 48.125 35.0028 47.8466 35.9517 47.2898C36.9006 46.733 37.608 45.9403 38.0739 44.9119C38.5398 43.8835 38.7727 42.6591 38.7727 41.2386C38.7727 39.8295 38.5426 38.6165 38.0824 37.5994C37.6222 36.5767 36.9347 35.7926 36.0199 35.2472C35.1051 34.696 33.9659 34.4205 32.6023 34.4205H29.2273V48.125ZM49.0995 50.2727C47.8382 50.2727 46.7501 49.9943 45.8353 49.4375C44.9263 48.875 44.2245 48.0909 43.7302 47.0852C43.2416 46.0739 42.9973 44.8977 42.9973 43.5568C42.9973 42.2159 43.2416 41.0341 43.7302 40.0114C44.2245 38.983 44.912 38.1818 45.7927 37.608C46.6791 37.0284 47.7132 36.7386 48.895 36.7386C49.5768 36.7386 50.2501 36.8523 50.9149 37.0795C51.5797 37.3068 52.1848 37.6761 52.7302 38.1875C53.2757 38.6932 53.7103 39.3636 54.0342 40.1989C54.3581 41.0341 54.52 42.0625 54.52 43.2841V44.1364H44.4291V42.3977H52.4745C52.4745 41.6591 52.3268 41 52.0314 40.4205C51.7416 39.8409 51.3268 39.3835 50.787 39.0483C50.253 38.7131 49.6223 38.5455 48.895 38.5455C48.0939 38.5455 47.4007 38.7443 46.8155 39.142C46.2359 39.5341 45.7899 40.0455 45.4774 40.6761C45.1649 41.3068 45.0086 41.983 45.0086 42.7045V43.8636C45.0086 44.8523 45.1791 45.6903 45.52 46.3778C45.8666 47.0597 46.3467 47.5795 46.9603 47.9375C47.574 48.2898 48.287 48.4659 49.0995 48.4659C49.628 48.4659 50.1052 48.392 50.5314 48.2443C50.9632 48.0909 51.3353 47.8636 51.6478 47.5625C51.9603 47.2557 52.2018 46.875 52.3723 46.4205L54.3155 46.9659C54.1109 47.625 53.7672 48.2045 53.2842 48.7045C52.8013 49.1989 52.2047 49.5852 51.4944 49.8636C50.7842 50.1364 49.9859 50.2727 49.0995 50.2727ZM47.8723 35.1364L49.9518 31.1818H52.3041L49.645 35.1364H47.8723ZM67.4058 36.9091L62.5649 50H60.5194L55.6785 36.9091H57.8603L61.4739 47.3409H61.6103L65.2239 36.9091H67.4058ZM74.6005 50.2727C73.3391 50.2727 72.2511 49.9943 71.3363 49.4375C70.4272 48.875 69.7255 48.0909 69.2312 47.0852C68.7425 46.0739 68.4982 44.8977 68.4982 43.5568C68.4982 42.2159 68.7425 41.0341 69.2312 40.0114C69.7255 38.983 70.413 38.1818 71.2937 37.608C72.18 37.0284 73.2141 36.7386 74.3959 36.7386C75.0778 36.7386 75.7511 36.8523 76.4158 37.0795C77.0806 37.3068 77.6857 37.6761 78.2312 38.1875C78.7766 38.6932 79.2113 39.3636 79.5351 40.1989C79.859 41.0341 80.0209 42.0625 80.0209 43.2841V44.1364H69.93V42.3977H77.9755C77.9755 41.6591 77.8278 41 77.5323 40.4205C77.2425 39.8409 76.8278 39.3835 76.288 39.0483C75.7539 38.7131 75.1232 38.5455 74.3959 38.5455C73.5948 38.5455 72.9016 38.7443 72.3164 39.142C71.7368 39.5341 71.2908 40.0455 70.9783 40.6761C70.6658 41.3068 70.5096 41.983 70.5096 42.7045V43.8636C70.5096 44.8523 70.68 45.6903 71.0209 46.3778C71.3675 47.0597 71.8476 47.5795 72.4613 47.9375C73.0749 48.2898 73.788 48.4659 74.6005 48.4659C75.1289 48.4659 75.6062 48.392 76.0323 48.2443C76.4641 48.0909 76.8363 47.8636 77.1488 47.5625C77.4613 47.2557 77.7028 46.875 77.8732 46.4205L79.8164 46.9659C79.6118 47.625 79.2681 48.2045 78.7851 48.7045C78.3022 49.1989 77.7056 49.5852 76.9954 49.8636C76.2851 50.1364 75.4868 50.2727 74.6005 50.2727ZM84.612 32.5455V50H82.6006V32.5455H84.612ZM93.1341 50.2727C91.9523 50.2727 90.9153 49.9915 90.0233 49.429C89.1369 48.8665 88.4437 48.0795 87.9437 47.0682C87.4494 46.0568 87.2023 44.875 87.2023 43.5227C87.2023 42.1591 87.4494 40.9687 87.9437 39.9517C88.4437 38.9347 89.1369 38.1449 90.0233 37.5824C90.9153 37.0199 91.9523 36.7386 93.1341 36.7386C94.3159 36.7386 95.35 37.0199 96.2364 37.5824C97.1284 38.1449 97.8216 38.9347 98.3159 39.9517C98.8159 40.9687 99.0659 42.1591 99.0659 43.5227C99.0659 44.875 98.8159 46.0568 98.3159 47.0682C97.8216 48.0795 97.1284 48.8665 96.2364 49.429C95.35 49.9915 94.3159 50.2727 93.1341 50.2727ZM93.1341 48.4659C94.0318 48.4659 94.7705 48.2358 95.35 47.7756C95.9295 47.3153 96.3585 46.7102 96.6369 45.9602C96.9153 45.2102 97.0545 44.3977 97.0545 43.5227C97.0545 42.6477 96.9153 41.8324 96.6369 41.0767C96.3585 40.321 95.9295 39.7102 95.35 39.2443C94.7705 38.7784 94.0318 38.5455 93.1341 38.5455C92.2364 38.5455 91.4977 38.7784 90.9182 39.2443C90.3386 39.7102 89.9097 40.321 89.6312 41.0767C89.3528 41.8324 89.2136 42.6477 89.2136 43.5227C89.2136 44.3977 89.3528 45.2102 89.6312 45.9602C89.9097 46.7102 90.3386 47.3153 90.9182 47.7756C91.4977 48.2358 92.2364 48.4659 93.1341 48.4659ZM101.656 54.9091V36.9091H103.599V38.9886H103.838C103.986 38.7614 104.19 38.4716 104.452 38.1193C104.719 37.7614 105.099 37.4432 105.594 37.1648C106.094 36.8807 106.77 36.7386 107.622 36.7386C108.724 36.7386 109.696 37.0142 110.537 37.5653C111.378 38.1165 112.034 38.8977 112.506 39.9091C112.977 40.9205 113.213 42.1136 113.213 43.4886C113.213 44.875 112.977 46.0767 112.506 47.0938C112.034 48.1051 111.381 48.8892 110.545 49.446C109.71 49.9972 108.747 50.2727 107.656 50.2727C106.815 50.2727 106.142 50.1335 105.636 49.8551C105.131 49.571 104.741 49.25 104.469 48.892C104.196 48.5284 103.986 48.2273 103.838 47.9886H103.668V54.9091H101.656ZM103.633 43.4545C103.633 44.4432 103.778 45.3153 104.068 46.071C104.358 46.821 104.781 47.4091 105.338 47.8352C105.895 48.2557 106.577 48.4659 107.383 48.4659C108.224 48.4659 108.926 48.2443 109.489 47.8011C110.057 47.3523 110.483 46.75 110.767 45.9943C111.057 45.233 111.202 44.3864 111.202 43.4545C111.202 42.5341 111.06 41.7045 110.776 40.9659C110.497 40.2216 110.074 39.6335 109.506 39.2017C108.943 38.7642 108.236 38.5455 107.383 38.5455C106.565 38.5455 105.878 38.7528 105.321 39.1676C104.764 39.5767 104.344 40.1506 104.06 40.8892C103.776 41.6222 103.633 42.4773 103.633 43.4545ZM115.801 54.9091V36.9091H117.744V38.9886H117.983C118.131 38.7614 118.335 38.4716 118.597 38.1193C118.864 37.7614 119.244 37.4432 119.739 37.1648C120.239 36.8807 120.915 36.7386 121.767 36.7386C122.869 36.7386 123.841 37.0142 124.682 37.5653C125.523 38.1165 126.179 38.8977 126.651 39.9091C127.122 40.9205 127.358 42.1136 127.358 43.4886C127.358 44.875 127.122 46.0767 126.651 47.0938C126.179 48.1051 125.526 48.8892 124.69 49.446C123.855 49.9972 122.892 50.2727 121.801 50.2727C120.96 50.2727 120.287 50.1335 119.781 49.8551C119.276 49.571 118.886 49.25 118.614 48.892C118.341 48.5284 118.131 48.2273 117.983 47.9886H117.813V54.9091H115.801ZM117.778 43.4545C117.778 44.4432 117.923 45.3153 118.213 46.071C118.503 46.821 118.926 47.4091 119.483 47.8352C120.04 48.2557 120.722 48.4659 121.528 48.4659C122.369 48.4659 123.071 48.2443 123.634 47.8011C124.202 47.3523 124.628 46.75 124.912 45.9943C125.202 45.233 125.347 44.3864 125.347 43.4545C125.347 42.5341 125.205 41.7045 124.921 40.9659C124.642 40.2216 124.219 39.6335 123.651 39.2017C123.088 38.7642 122.381 38.5455 121.528 38.5455C120.71 38.5455 120.023 38.7528 119.466 39.1676C118.909 39.5767 118.489 40.1506 118.205 40.8892C117.921 41.6222 117.778 42.4773 117.778 43.4545ZM135.435 50.2727C134.173 50.2727 133.085 49.9943 132.171 49.4375C131.262 48.875 130.56 48.0909 130.066 47.0852C129.577 46.0739 129.333 44.8977 129.333 43.5568C129.333 42.2159 129.577 41.0341 130.066 40.0114C130.56 38.983 131.247 38.1818 132.128 37.608C133.014 37.0284 134.048 36.7386 135.23 36.7386C135.912 36.7386 136.585 36.8523 137.25 37.0795C137.915 37.3068 138.52 37.6761 139.066 38.1875C139.611 38.6932 140.046 39.3636 140.37 40.1989C140.693 41.0341 140.855 42.0625 140.855 43.2841V44.1364H130.764V42.3977H138.81C138.81 41.6591 138.662 41 138.367 40.4205C138.077 39.8409 137.662 39.3835 137.122 39.0483C136.588 38.7131 135.958 38.5455 135.23 38.5455C134.429 38.5455 133.736 38.7443 133.151 39.142C132.571 39.5341 132.125 40.0455 131.813 40.6761C131.5 41.3068 131.344 41.983 131.344 42.7045V43.8636C131.344 44.8523 131.514 45.6903 131.855 46.3778C132.202 47.0597 132.682 47.5795 133.296 47.9375C133.909 48.2898 134.622 48.4659 135.435 48.4659C135.963 48.4659 136.441 48.392 136.867 48.2443C137.298 48.0909 137.671 47.8636 137.983 47.5625C138.296 47.2557 138.537 46.875 138.708 46.4205L140.651 46.9659C140.446 47.625 140.102 48.2045 139.62 48.7045C139.137 49.1989 138.54 49.5852 137.83 49.8636C137.12 50.1364 136.321 50.2727 135.435 50.2727ZM151.685 44.6477V36.9091H153.696V50H151.685V47.7841H151.549C151.242 48.4489 150.765 49.0142 150.117 49.4801C149.469 49.9403 148.651 50.1705 147.662 50.1705C146.844 50.1705 146.117 49.9915 145.48 49.6335C144.844 49.2699 144.344 48.7244 143.98 47.9972C143.617 47.2642 143.435 46.3409 143.435 45.2273V36.9091H145.446V45.0909C145.446 46.0455 145.713 46.8068 146.247 47.375C146.787 47.9432 147.475 48.2273 148.31 48.2273C148.81 48.2273 149.318 48.0994 149.836 47.8438C150.358 47.5881 150.796 47.196 151.148 46.6676C151.506 46.1392 151.685 45.4659 151.685 44.6477ZM156.9 50V36.9091H158.843V38.8864H158.98C159.218 38.2386 159.65 37.7131 160.275 37.3097C160.9 36.9062 161.605 36.7045 162.389 36.7045C162.537 36.7045 162.721 36.7074 162.943 36.7131C163.164 36.7187 163.332 36.7273 163.446 36.7386V38.7841C163.378 38.767 163.221 38.7415 162.977 38.7074C162.738 38.6676 162.486 38.6477 162.218 38.6477C161.582 38.6477 161.014 38.7812 160.514 39.0483C160.02 39.3097 159.628 39.6733 159.338 40.1392C159.054 40.5994 158.912 41.125 158.912 41.7159V50H156.9ZM175.063 50L170.29 32.5455H172.438L176.086 46.7614H176.256L179.972 32.5455H182.359L186.075 46.7614H186.245L189.893 32.5455H192.04L187.268 50H185.086L181.234 36.0909H181.097L177.245 50H175.063ZM198.191 50.2727C196.93 50.2727 195.842 49.9943 194.927 49.4375C194.018 48.875 193.316 48.0909 192.822 47.0852C192.333 46.0739 192.089 44.8977 192.089 43.5568C192.089 42.2159 192.333 41.0341 192.822 40.0114C193.316 38.983 194.004 38.1818 194.884 37.608C195.771 37.0284 196.805 36.7386 197.987 36.7386C198.668 36.7386 199.342 36.8523 200.006 37.0795C200.671 37.3068 201.276 37.6761 201.822 38.1875C202.367 38.6932 202.802 39.3636 203.126 40.1989C203.45 41.0341 203.612 42.0625 203.612 43.2841V44.1364H193.521V42.3977H201.566C201.566 41.6591 201.418 41 201.123 40.4205C200.833 39.8409 200.418 39.3835 199.879 39.0483C199.345 38.7131 198.714 38.5455 197.987 38.5455C197.185 38.5455 196.492 38.7443 195.907 39.142C195.327 39.5341 194.881 40.0455 194.569 40.6761C194.256 41.3068 194.1 41.983 194.1 42.7045V43.8636C194.1 44.8523 194.271 45.6903 194.612 46.3778C194.958 47.0597 195.438 47.5795 196.052 47.9375C196.666 48.2898 197.379 48.4659 198.191 48.4659C198.72 48.4659 199.197 48.392 199.623 48.2443C200.055 48.0909 200.427 47.8636 200.739 47.5625C201.052 47.2557 201.293 46.875 201.464 46.4205L203.407 46.9659C203.202 47.625 202.859 48.2045 202.376 48.7045C201.893 49.1989 201.296 49.5852 200.586 49.8636C199.876 50.1364 199.077 50.2727 198.191 50.2727ZM206.464 50V32.5455H208.475V38.9886H208.646C208.793 38.7614 208.998 38.4716 209.259 38.1193C209.526 37.7614 209.907 37.4432 210.401 37.1648C210.901 36.8807 211.578 36.7386 212.43 36.7386C213.532 36.7386 214.504 37.0142 215.345 37.5653C216.186 38.1165 216.842 38.8977 217.313 39.9091C217.785 40.9205 218.021 42.1136 218.021 43.4886C218.021 44.875 217.785 46.0767 217.313 47.0938C216.842 48.1051 216.188 48.8892 215.353 49.446C214.518 49.9972 213.555 50.2727 212.464 50.2727C211.623 50.2727 210.95 50.1335 210.444 49.8551C209.938 49.571 209.549 49.25 209.276 48.892C209.004 48.5284 208.793 48.2273 208.646 47.9886H208.407V50H206.464ZM208.441 43.4545C208.441 44.4432 208.586 45.3153 208.876 46.071C209.166 46.821 209.589 47.4091 210.146 47.8352C210.703 48.2557 211.384 48.4659 212.191 48.4659C213.032 48.4659 213.734 48.2443 214.296 47.8011C214.865 47.3523 215.291 46.75 215.575 45.9943C215.865 45.233 216.009 44.3864 216.009 43.4545C216.009 42.5341 215.867 41.7045 215.583 40.9659C215.305 40.2216 214.882 39.6335 214.313 39.2017C213.751 38.7642 213.043 38.5455 212.191 38.5455C211.373 38.5455 210.686 38.7528 210.129 39.1676C209.572 39.5767 209.151 40.1506 208.867 40.8892C208.583 41.6222 208.441 42.4773 208.441 43.4545Z" fill="black"/>
<path d="M370.736 35.5976C370.337 35.1963 369.861 34.8782 369.338 34.6617C368.815 34.4453 368.253 34.3347 367.687 34.3364C366.539 34.3364 365.456 34.7882 364.638 35.5976L364.459 35.7764L364.28 35.5976C363.48 34.7882 362.398 34.3364 361.249 34.3364C360.397 34.3364 359.563 34.5891 358.854 35.0628C358.145 35.5365 357.592 36.2098 357.266 36.9977C356.939 37.7855 356.854 38.6524 357.02 39.4888C357.187 40.3251 357.597 41.0934 358.2 41.6964L363.951 47.447C364.092 47.5882 364.28 47.6635 364.468 47.6635C364.656 47.6635 364.845 47.5882 364.986 47.447L370.736 41.6964C371.137 41.297 371.455 40.8224 371.672 40.3C371.888 39.7775 372 39.2174 372 38.6517C372 38.0861 371.888 37.526 371.672 37.0035C371.455 36.481 371.137 36.0065 370.736 35.607V35.5976ZM369.701 40.6612L364.459 45.9035L359.226 40.6612C358.689 40.1247 358.388 39.4094 358.388 38.647C358.388 37.8847 358.689 37.1694 359.226 36.6329C359.762 36.0964 360.478 35.7953 361.24 35.7953C362.002 35.7953 362.718 36.0964 363.254 36.6329L363.941 37.32C364.224 37.6023 364.685 37.6023 364.976 37.32L365.664 36.6329C366.2 36.0964 366.915 35.7953 367.678 35.7953C368.44 35.7953 369.155 36.0964 369.692 36.6329C370.225 37.1694 370.525 37.8952 370.525 38.6517C370.525 39.4083 370.225 40.1341 369.692 40.6706L369.701 40.6612Z" fill="black"/>
<path d="M25.5795 62.2102V61.2727H32.125V62.2102H29.3807V70H28.3239V62.2102H25.5795ZM35.4148 70.1364C34.7841 70.1364 34.2401 69.9972 33.7827 69.7188C33.3281 69.4375 32.9773 69.0455 32.7301 68.5426C32.4858 68.0369 32.3636 67.4489 32.3636 66.7784C32.3636 66.108 32.4858 65.517 32.7301 65.0057C32.9773 64.4915 33.321 64.0909 33.7614 63.804C34.2045 63.5142 34.7216 63.3693 35.3125 63.3693C35.6534 63.3693 35.9901 63.4261 36.3224 63.5398C36.6548 63.6534 36.9574 63.8381 37.2301 64.0938C37.5028 64.3466 37.7202 64.6818 37.8821 65.0994C38.044 65.517 38.125 66.0312 38.125 66.642V67.0682H33.0795V66.1989H37.1023C37.1023 65.8295 37.0284 65.5 36.8807 65.2102C36.7358 64.9205 36.5284 64.6918 36.2585 64.5241C35.9915 64.3565 35.6761 64.2727 35.3125 64.2727C34.9119 64.2727 34.5653 64.3722 34.2727 64.571C33.983 64.767 33.7599 65.0227 33.6037 65.3381C33.4474 65.6534 33.3693 65.9915 33.3693 66.3523V66.9318C33.3693 67.4261 33.4545 67.8452 33.625 68.1889C33.7983 68.5298 34.0384 68.7898 34.3452 68.9688C34.652 69.1449 35.0085 69.233 35.4148 69.233C35.679 69.233 35.9176 69.196 36.1307 69.1222C36.3466 69.0455 36.5327 68.9318 36.6889 68.7812C36.8452 68.6278 36.9659 68.4375 37.0511 68.2102L38.0227 68.483C37.9205 68.8125 37.7486 69.1023 37.5071 69.3523C37.2656 69.5994 36.9673 69.7926 36.6122 69.9318C36.2571 70.0682 35.858 70.1364 35.4148 70.1364ZM42.3139 70.1364C41.7003 70.1364 41.1719 69.9915 40.7287 69.7017C40.2855 69.4119 39.9446 69.0128 39.706 68.5043C39.4673 67.9957 39.348 67.4148 39.348 66.7614C39.348 66.0966 39.4702 65.5099 39.7145 65.0014C39.9616 64.4901 40.3054 64.0909 40.7457 63.804C41.1889 63.5142 41.706 63.3693 42.2969 63.3693C42.7571 63.3693 43.1719 63.4545 43.5412 63.625C43.9105 63.7955 44.2131 64.0341 44.4489 64.3409C44.6847 64.6477 44.831 65.0057 44.8878 65.4148H43.8821C43.8054 65.1165 43.6349 64.8523 43.3707 64.6222C43.1094 64.3892 42.7571 64.2727 42.3139 64.2727C41.9219 64.2727 41.5781 64.375 41.2827 64.5795C40.9901 64.7812 40.7614 65.0668 40.5966 65.4361C40.4347 65.8026 40.3537 66.233 40.3537 66.7273C40.3537 67.233 40.4332 67.6733 40.5923 68.0483C40.7543 68.4233 40.9815 68.7145 41.2741 68.9219C41.5696 69.1293 41.9162 69.233 42.3139 69.233C42.5753 69.233 42.8125 69.1875 43.0256 69.0966C43.2386 69.0057 43.419 68.875 43.5668 68.7045C43.7145 68.5341 43.8196 68.3295 43.8821 68.0909H44.8878C44.831 68.4773 44.6903 68.8253 44.4659 69.1349C44.2443 69.4418 43.9503 69.6861 43.5838 69.8679C43.2202 70.0469 42.7969 70.1364 42.3139 70.1364ZM47.3636 66.0625V70H46.358V61.2727H47.3636V64.4773H47.4489C47.6023 64.1392 47.8324 63.8707 48.1392 63.6719C48.4489 63.4702 48.8608 63.3693 49.375 63.3693C49.821 63.3693 50.2116 63.4588 50.5469 63.6378C50.8821 63.8139 51.142 64.0852 51.3267 64.4517C51.5142 64.8153 51.608 65.2784 51.608 65.8409V70H50.6023V65.9091C50.6023 65.3892 50.4673 64.9872 50.1974 64.7031C49.9304 64.4162 49.5597 64.2727 49.0852 64.2727C48.7557 64.2727 48.4602 64.3423 48.1989 64.4815C47.9403 64.6207 47.7358 64.8239 47.5852 65.0909C47.4375 65.358 47.3636 65.6818 47.3636 66.0625ZM60.5046 61.2727V70H59.4819L54.7262 63.1477H54.641V70H53.5842V61.2727H54.6069L59.3796 68.142H59.4648V61.2727H60.5046ZM65.142 70.1364C64.5511 70.1364 64.0327 69.9957 63.5866 69.7145C63.1435 69.4332 62.7969 69.0398 62.5469 68.5341C62.2997 68.0284 62.1761 67.4375 62.1761 66.7614C62.1761 66.0795 62.2997 65.4844 62.5469 64.9759C62.7969 64.4673 63.1435 64.0724 63.5866 63.7912C64.0327 63.5099 64.5511 63.3693 65.142 63.3693C65.733 63.3693 66.25 63.5099 66.6932 63.7912C67.1392 64.0724 67.4858 64.4673 67.733 64.9759C67.983 65.4844 68.108 66.0795 68.108 66.7614C68.108 67.4375 67.983 68.0284 67.733 68.5341C67.4858 69.0398 67.1392 69.4332 66.6932 69.7145C66.25 69.9957 65.733 70.1364 65.142 70.1364ZM65.142 69.233C65.5909 69.233 65.9602 69.1179 66.25 68.8878C66.5398 68.6577 66.7543 68.3551 66.8935 67.9801C67.0327 67.6051 67.1023 67.1989 67.1023 66.7614C67.1023 66.3239 67.0327 65.9162 66.8935 65.5384C66.7543 65.1605 66.5398 64.8551 66.25 64.6222C65.9602 64.3892 65.5909 64.2727 65.142 64.2727C64.6932 64.2727 64.3239 64.3892 64.0341 64.6222C63.7443 64.8551 63.5298 65.1605 63.3906 65.5384C63.2514 65.9162 63.1818 66.3239 63.1818 66.7614C63.1818 67.1989 63.2514 67.6051 63.3906 67.9801C63.5298 68.3551 63.7443 68.6577 64.0341 68.8878C64.3239 69.1179 64.6932 69.233 65.142 69.233ZM74.761 63.4545L72.3406 70H71.3178L68.8974 63.4545H69.9883L71.7951 68.6705H71.8633L73.6701 63.4545H74.761ZM77.8153 70.1534C77.4006 70.1534 77.0241 70.0753 76.6861 69.919C76.348 69.7599 76.0795 69.5312 75.8807 69.233C75.6818 68.9318 75.5824 68.5682 75.5824 68.142C75.5824 67.767 75.6563 67.4631 75.804 67.2301C75.9517 66.9943 76.1491 66.8097 76.3963 66.6761C76.6435 66.5426 76.9162 66.4432 77.2145 66.3778C77.5156 66.3097 77.8182 66.2557 78.1222 66.2159C78.5199 66.1648 78.8423 66.1264 79.0895 66.1009C79.3395 66.0724 79.5213 66.0256 79.6349 65.9602C79.7514 65.8949 79.8097 65.7812 79.8097 65.6193V65.5852C79.8097 65.1648 79.6946 64.8381 79.4645 64.6051C79.2372 64.3722 78.892 64.2557 78.429 64.2557C77.9489 64.2557 77.5724 64.3608 77.2997 64.571C77.027 64.7812 76.8352 65.0057 76.7244 65.2443L75.7699 64.9034C75.9403 64.5057 76.1676 64.196 76.4517 63.9744C76.7386 63.75 77.0511 63.5937 77.3892 63.5057C77.7301 63.4148 78.0653 63.3693 78.3949 63.3693C78.6051 63.3693 78.8466 63.3949 79.1193 63.446C79.3949 63.4943 79.6605 63.5952 79.9162 63.7486C80.1747 63.902 80.3892 64.1335 80.5597 64.4432C80.7301 64.7528 80.8153 65.1676 80.8153 65.6875V70H79.8097V69.1136H79.7585C79.6903 69.2557 79.5767 69.4077 79.4176 69.5696C79.2585 69.7315 79.0469 69.8693 78.7827 69.983C78.5185 70.0966 78.196 70.1534 77.8153 70.1534ZM77.9688 69.25C78.3665 69.25 78.7017 69.1719 78.9744 69.0156C79.25 68.8594 79.4574 68.6577 79.5966 68.4105C79.7386 68.1634 79.8097 67.9034 79.8097 67.6307V66.7102C79.767 66.7614 79.6733 66.8082 79.5284 66.8509C79.3864 66.8906 79.2216 66.9261 79.0341 66.9574C78.8494 66.9858 78.669 67.0114 78.4929 67.0341C78.3196 67.054 78.179 67.071 78.071 67.0852C77.8097 67.1193 77.5653 67.1747 77.3381 67.2514C77.1136 67.3253 76.9318 67.4375 76.7926 67.5881C76.6563 67.7358 76.5881 67.9375 76.5881 68.1932C76.5881 68.5426 76.7173 68.8068 76.9759 68.9858C77.2372 69.1619 77.5682 69.25 77.9688 69.25ZM90.935 63.4545C90.8839 63.0227 90.6765 62.6875 90.3129 62.4489C89.9492 62.2102 89.5032 62.0909 88.9748 62.0909C88.5884 62.0909 88.2504 62.1534 87.9606 62.2784C87.6737 62.4034 87.4492 62.5753 87.2873 62.794C87.1282 63.0128 87.0487 63.2614 87.0487 63.5398C87.0487 63.7727 87.104 63.973 87.2148 64.1406C87.3285 64.3054 87.4734 64.4432 87.6495 64.554C87.8256 64.6619 88.0103 64.7514 88.2035 64.8224C88.3967 64.8906 88.5742 64.946 88.7362 64.9886L89.6225 65.2273C89.8498 65.2869 90.1026 65.3693 90.381 65.4744C90.6623 65.5795 90.9308 65.723 91.1864 65.9048C91.445 66.0838 91.658 66.3139 91.8256 66.5952C91.9933 66.8764 92.0771 67.2216 92.0771 67.6307C92.0771 68.1023 91.9535 68.5284 91.7063 68.9091C91.462 69.2898 91.104 69.5923 90.6325 69.8168C90.1637 70.0412 89.5941 70.1534 88.9237 70.1534C88.2987 70.1534 87.7575 70.0526 87.3001 69.8509C86.8455 69.6491 86.4876 69.3679 86.2262 69.0071C85.9677 68.6463 85.8214 68.2273 85.7873 67.75H86.8782C86.9066 68.0795 87.0174 68.3523 87.2106 68.5682C87.4066 68.7812 87.6538 68.9403 87.9521 69.0455C88.2532 69.1477 88.5771 69.1989 88.9237 69.1989C89.3271 69.1989 89.6893 69.1335 90.0103 69.0028C90.3313 68.8693 90.5856 68.6847 90.7731 68.4489C90.9606 68.2102 91.0543 67.9318 91.0543 67.6136C91.0543 67.3239 90.9734 67.0881 90.8114 66.9062C90.6495 66.7244 90.4364 66.5767 90.1722 66.4631C89.908 66.3494 89.6225 66.25 89.3157 66.1648L88.2418 65.858C87.56 65.6619 87.0202 65.3821 86.6225 65.0185C86.2248 64.6548 86.0259 64.179 86.0259 63.5909C86.0259 63.1023 86.158 62.6761 86.4222 62.3125C86.6893 61.946 87.0472 61.6619 87.4961 61.4602C87.9478 61.2557 88.4521 61.1534 89.0089 61.1534C89.5714 61.1534 90.0714 61.2543 90.5089 61.456C90.9464 61.6548 91.293 61.9276 91.5487 62.2741C91.8072 62.6207 91.9435 63.0142 91.9577 63.4545H90.935ZM96.3374 70.1364C95.7464 70.1364 95.228 69.9957 94.782 69.7145C94.3388 69.4332 93.9922 69.0398 93.7422 68.5341C93.495 68.0284 93.3714 67.4375 93.3714 66.7614C93.3714 66.0795 93.495 65.4844 93.7422 64.9759C93.9922 64.4673 94.3388 64.0724 94.782 63.7912C95.228 63.5099 95.7464 63.3693 96.3374 63.3693C96.9283 63.3693 97.4453 63.5099 97.8885 63.7912C98.3345 64.0724 98.6811 64.4673 98.9283 64.9759C99.1783 65.4844 99.3033 66.0795 99.3033 66.7614C99.3033 67.4375 99.1783 68.0284 98.9283 68.5341C98.6811 69.0398 98.3345 69.4332 97.8885 69.7145C97.4453 69.9957 96.9283 70.1364 96.3374 70.1364ZM96.3374 69.233C96.7862 69.233 97.1555 69.1179 97.4453 68.8878C97.7351 68.6577 97.9496 68.3551 98.0888 67.9801C98.228 67.6051 98.2976 67.1989 98.2976 66.7614C98.2976 66.3239 98.228 65.9162 98.0888 65.5384C97.9496 65.1605 97.7351 64.8551 97.4453 64.6222C97.1555 64.3892 96.7862 64.2727 96.3374 64.2727C95.8885 64.2727 95.5192 64.3892 95.2294 64.6222C94.9396 64.8551 94.7251 65.1605 94.5859 65.5384C94.4467 65.9162 94.3771 66.3239 94.3771 66.7614C94.3771 67.1989 94.4467 67.6051 94.5859 67.9801C94.7251 68.3551 94.9396 68.6577 95.2294 68.8878C95.5192 69.1179 95.8885 69.233 96.3374 69.233ZM101.844 61.2727V70H100.838V61.2727H101.844ZM107.811 67.3239V63.4545H108.817V70H107.811V68.892H107.743C107.589 69.2244 107.351 69.5071 107.027 69.7401C106.703 69.9702 106.294 70.0852 105.8 70.0852C105.391 70.0852 105.027 69.9957 104.709 69.8168C104.391 69.6349 104.141 69.3622 103.959 68.9986C103.777 68.6321 103.686 68.1705 103.686 67.6136V63.4545H104.692V67.5455C104.692 68.0227 104.825 68.4034 105.092 68.6875C105.362 68.9716 105.706 69.1136 106.124 69.1136C106.374 69.1136 106.628 69.0497 106.886 68.9219C107.148 68.794 107.366 68.598 107.543 68.3338C107.722 68.0696 107.811 67.733 107.811 67.3239ZM113.505 63.4545V64.3068H110.113V63.4545H113.505ZM111.102 61.8864H112.108V68.125C112.108 68.4091 112.149 68.6222 112.231 68.7642C112.316 68.9034 112.424 68.9972 112.555 69.0455C112.689 69.0909 112.829 69.1136 112.977 69.1136C113.088 69.1136 113.179 69.108 113.25 69.0966C113.321 69.0824 113.377 69.071 113.42 69.0625L113.625 69.9659C113.556 69.9915 113.461 70.017 113.339 70.0426C113.217 70.071 113.062 70.0852 112.875 70.0852C112.591 70.0852 112.312 70.0241 112.039 69.902C111.77 69.7798 111.545 69.5938 111.366 69.3438C111.19 69.0938 111.102 68.7784 111.102 68.3977V61.8864ZM115.018 70V63.4545H116.024V70H115.018ZM115.529 62.3636C115.333 62.3636 115.164 62.2969 115.022 62.1634C114.883 62.0298 114.814 61.8693 114.814 61.6818C114.814 61.4943 114.883 61.3338 115.022 61.2003C115.164 61.0668 115.333 61 115.529 61C115.725 61 115.893 61.0668 116.032 61.2003C116.174 61.3338 116.245 61.4943 116.245 61.6818C116.245 61.8693 116.174 62.0298 116.032 62.1634C115.893 62.2969 115.725 62.3636 115.529 62.3636ZM120.525 70.1364C119.934 70.1364 119.415 69.9957 118.969 69.7145C118.526 69.4332 118.18 69.0398 117.93 68.5341C117.683 68.0284 117.559 67.4375 117.559 66.7614C117.559 66.0795 117.683 65.4844 117.93 64.9759C118.18 64.4673 118.526 64.0724 118.969 63.7912C119.415 63.5099 119.934 63.3693 120.525 63.3693C121.116 63.3693 121.633 63.5099 122.076 63.7912C122.522 64.0724 122.869 64.4673 123.116 64.9759C123.366 65.4844 123.491 66.0795 123.491 66.7614C123.491 67.4375 123.366 68.0284 123.116 68.5341C122.869 69.0398 122.522 69.4332 122.076 69.7145C121.633 69.9957 121.116 70.1364 120.525 70.1364ZM120.525 69.233C120.974 69.233 121.343 69.1179 121.633 68.8878C121.923 68.6577 122.137 68.3551 122.276 67.9801C122.415 67.6051 122.485 67.1989 122.485 66.7614C122.485 66.3239 122.415 65.9162 122.276 65.5384C122.137 65.1605 121.923 64.8551 121.633 64.6222C121.343 64.3892 120.974 64.2727 120.525 64.2727C120.076 64.2727 119.707 64.3892 119.417 64.6222C119.127 64.8551 118.913 65.1605 118.773 65.5384C118.634 65.9162 118.565 66.3239 118.565 66.7614C118.565 67.1989 118.634 67.6051 118.773 67.9801C118.913 68.3551 119.127 68.6577 119.417 68.8878C119.707 69.1179 120.076 69.233 120.525 69.233ZM126.032 66.0625V70H125.026V63.4545H125.998V64.4773H126.083C126.236 64.1449 126.469 63.8778 126.782 63.6761C127.094 63.4716 127.498 63.3693 127.992 63.3693C128.435 63.3693 128.823 63.4602 129.155 63.642C129.488 63.821 129.746 64.0938 129.931 64.4602C130.115 64.8239 130.208 65.2841 130.208 65.8409V70H129.202V65.9091C129.202 65.3949 129.069 64.9943 128.801 64.7074C128.534 64.4176 128.168 64.2727 127.702 64.2727C127.381 64.2727 127.094 64.3423 126.841 64.4815C126.591 64.6207 126.394 64.8239 126.249 65.0909C126.104 65.358 126.032 65.6818 126.032 66.0625ZM136.682 64.9205L135.778 65.1761C135.722 65.0256 135.638 64.8793 135.527 64.7372C135.419 64.5923 135.271 64.473 135.084 64.3793C134.896 64.2855 134.656 64.2386 134.364 64.2386C133.963 64.2386 133.629 64.331 133.362 64.5156C133.098 64.6974 132.966 64.929 132.966 65.2102C132.966 65.4602 133.057 65.6577 133.239 65.8026C133.42 65.9474 133.705 66.0682 134.091 66.1648L135.062 66.4034C135.648 66.5455 136.084 66.7628 136.371 67.0554C136.658 67.3452 136.801 67.7187 136.801 68.1761C136.801 68.5511 136.693 68.8864 136.477 69.1818C136.264 69.4773 135.966 69.7102 135.582 69.8807C135.199 70.0511 134.753 70.1364 134.244 70.1364C133.577 70.1364 133.024 69.9915 132.587 69.7017C132.149 69.4119 131.872 68.9886 131.756 68.4318L132.71 68.1932C132.801 68.5455 132.973 68.8097 133.226 68.9858C133.482 69.1619 133.815 69.25 134.227 69.25C134.696 69.25 135.068 69.1506 135.344 68.9517C135.622 68.75 135.761 68.5085 135.761 68.2273C135.761 68 135.682 67.8097 135.523 67.6562C135.364 67.5 135.119 67.3835 134.79 67.3068L133.699 67.0511C133.099 66.9091 132.659 66.6889 132.378 66.3906C132.099 66.0895 131.96 65.7131 131.96 65.2614C131.96 64.892 132.064 64.5653 132.271 64.2812C132.482 63.9972 132.767 63.7741 133.128 63.6122C133.491 63.4503 133.903 63.3693 134.364 63.3693C135.011 63.3693 135.52 63.5114 135.889 63.7955C136.261 64.0795 136.526 64.4545 136.682 64.9205Z" fill="#606060"/>
<rect x="25" y="95" width="55" height="26" rx="4" fill="#F6F6F6"/>
<path d="M39.8011 105.364C39.7415 104.86 39.4995 104.469 39.0753 104.19C38.651 103.912 38.1307 103.773 37.5142 103.773C37.0634 103.773 36.669 103.846 36.331 103.991C35.9962 104.137 35.7344 104.338 35.5455 104.593C35.3598 104.848 35.267 105.138 35.267 105.463C35.267 105.735 35.3317 105.969 35.4609 106.164C35.5935 106.356 35.7625 106.517 35.968 106.646C36.1735 106.772 36.389 106.877 36.6143 106.96C36.8397 107.039 37.0469 107.104 37.2358 107.153L38.2699 107.432C38.535 107.501 38.83 107.598 39.1548 107.72C39.483 107.843 39.7962 108.01 40.0945 108.222C40.3961 108.431 40.6446 108.7 40.8402 109.028C41.0357 109.356 41.1335 109.759 41.1335 110.236C41.1335 110.786 40.9893 111.283 40.701 111.727C40.416 112.171 39.9983 112.524 39.4482 112.786C38.9013 113.048 38.2367 113.179 37.4545 113.179C36.7254 113.179 36.094 113.061 35.5604 112.826C35.0301 112.591 34.6125 112.263 34.3075 111.842C34.0059 111.421 33.8352 110.932 33.7955 110.375H35.0682C35.1013 110.759 35.2306 111.078 35.456 111.33C35.6847 111.578 35.973 111.764 36.321 111.886C36.6723 112.006 37.0502 112.065 37.4545 112.065C37.9252 112.065 38.3478 111.989 38.7223 111.837C39.0968 111.681 39.3935 111.465 39.6122 111.19C39.831 110.912 39.9403 110.587 39.9403 110.216C39.9403 109.878 39.8459 109.603 39.657 109.391C39.468 109.179 39.2195 109.006 38.9112 108.874C38.603 108.741 38.2699 108.625 37.9119 108.526L36.6591 108.168C35.8636 107.939 35.2339 107.612 34.7699 107.188C34.3059 106.764 34.0739 106.209 34.0739 105.523C34.0739 104.953 34.228 104.455 34.5362 104.031C34.8478 103.604 35.2654 103.272 35.7891 103.037C36.3161 102.798 36.9044 102.679 37.554 102.679C38.2102 102.679 38.7936 102.797 39.304 103.032C39.8144 103.264 40.2188 103.582 40.517 103.987C40.8187 104.391 40.9777 104.85 40.9943 105.364H39.8011ZM46.3226 105.364V106.358H42.3652V105.364H46.3226ZM43.5186 103.534H44.6919V110.812C44.6919 111.144 44.74 111.393 44.8361 111.558C44.9355 111.721 45.0615 111.83 45.214 111.886C45.3697 111.939 45.5338 111.966 45.7061 111.966C45.8354 111.966 45.9415 111.959 46.0243 111.946C46.1072 111.929 46.1735 111.916 46.2232 111.906L46.4618 112.96C46.3823 112.99 46.2712 113.02 46.1287 113.05C45.9862 113.083 45.8056 113.099 45.5868 113.099C45.2554 113.099 44.9306 113.028 44.6124 112.886C44.2975 112.743 44.0357 112.526 43.8269 112.234C43.6214 111.943 43.5186 111.575 43.5186 111.131V103.534ZM50.3347 113.179C49.8508 113.179 49.4116 113.088 49.0172 112.906C48.6228 112.72 48.3096 112.453 48.0776 112.105C47.8456 111.754 47.7296 111.33 47.7296 110.832C47.7296 110.395 47.8158 110.04 47.9881 109.768C48.1605 109.493 48.3908 109.278 48.6792 109.122C48.9675 108.966 49.2857 108.85 49.6337 108.774C49.985 108.695 50.338 108.632 50.6926 108.585C51.1567 108.526 51.5328 108.481 51.8212 108.451C52.1129 108.418 52.325 108.363 52.4576 108.287C52.5935 108.211 52.6614 108.078 52.6614 107.889V107.849C52.6614 107.359 52.5272 106.978 52.2587 106.706C51.9935 106.434 51.5909 106.298 51.0506 106.298C50.4905 106.298 50.0513 106.421 49.7331 106.666C49.415 106.911 49.1912 107.173 49.062 107.452L47.9483 107.054C48.1472 106.59 48.4123 106.229 48.7438 105.97C49.0785 105.708 49.4431 105.526 49.8375 105.423C50.2353 105.317 50.6264 105.264 51.0108 105.264C51.2561 105.264 51.5378 105.294 51.856 105.354C52.1775 105.41 52.4874 105.528 52.7857 105.707C53.0873 105.886 53.3375 106.156 53.5364 106.517C53.7353 106.878 53.8347 107.362 53.8347 107.969V113H52.6614V111.966H52.6017C52.5222 112.132 52.3896 112.309 52.204 112.498C52.0184 112.687 51.7715 112.848 51.4632 112.98C51.155 113.113 50.7788 113.179 50.3347 113.179ZM50.5137 112.125C50.9777 112.125 51.3688 112.034 51.687 111.852C52.0085 111.669 52.2504 111.434 52.4128 111.146C52.5785 110.857 52.6614 110.554 52.6614 110.236V109.162C52.6117 109.222 52.5023 109.276 52.3333 109.326C52.1676 109.372 51.9753 109.414 51.7566 109.45C51.5411 109.483 51.3307 109.513 51.1252 109.54C50.923 109.563 50.7589 109.583 50.633 109.599C50.3281 109.639 50.043 109.704 49.7779 109.793C49.516 109.879 49.3039 110.01 49.1415 110.186C48.9824 110.358 48.9029 110.594 48.9029 110.892C48.9029 111.3 49.0537 111.608 49.3553 111.817C49.6602 112.022 50.0463 112.125 50.5137 112.125ZM59.0586 116.023C58.4918 116.023 58.0046 115.95 57.5969 115.804C57.1893 115.661 56.8496 115.473 56.5778 115.237C56.3093 115.005 56.0955 114.757 55.9364 114.491L56.8711 113.835C56.9772 113.974 57.1114 114.134 57.2738 114.312C57.4362 114.495 57.6583 114.652 57.94 114.785C58.225 114.921 58.5979 114.989 59.0586 114.989C59.6751 114.989 60.1838 114.839 60.5849 114.541C60.9859 114.243 61.1864 113.776 61.1864 113.139V111.588H61.087C61.0008 111.727 60.8782 111.9 60.7191 112.105C60.5633 112.307 60.3379 112.488 60.043 112.647C59.7513 112.803 59.3569 112.881 58.8597 112.881C58.2433 112.881 57.6897 112.735 57.1992 112.443C56.712 112.152 56.3259 111.727 56.0408 111.17C55.7591 110.614 55.6183 109.937 55.6183 109.142C55.6183 108.36 55.7558 107.679 56.0309 107.099C56.306 106.515 56.6888 106.065 57.1793 105.746C57.6699 105.425 58.2366 105.264 58.8796 105.264C59.3768 105.264 59.7712 105.347 60.0629 105.513C60.3578 105.675 60.5832 105.861 60.739 106.07C60.8981 106.275 61.0207 106.444 61.1069 106.577H61.2262V105.364H62.3597V113.219C62.3597 113.875 62.2106 114.409 61.9123 114.82C61.6173 115.234 61.2196 115.537 60.7191 115.729C60.2219 115.925 59.6684 116.023 59.0586 116.023ZM59.0188 111.827C59.4895 111.827 59.8872 111.719 60.212 111.504C60.5368 111.288 60.7837 110.978 60.9528 110.574C61.1218 110.17 61.2063 109.686 61.2063 109.122C61.2063 108.572 61.1235 108.086 60.9577 107.665C60.792 107.245 60.5468 106.915 60.2219 106.676C59.8971 106.437 59.4961 106.318 59.0188 106.318C58.5217 106.318 58.1074 106.444 57.7759 106.696C57.4478 106.948 57.2009 107.286 57.0352 107.71C56.8728 108.134 56.7915 108.605 56.7915 109.122C56.7915 109.652 56.8744 110.121 57.0401 110.529C57.2092 110.933 57.4577 111.252 57.7859 111.484C58.1173 111.712 58.5283 111.827 59.0188 111.827ZM67.7092 113.159C66.9734 113.159 66.3387 112.997 65.805 112.672C65.2747 112.344 64.8654 111.886 64.5771 111.3C64.292 110.71 64.1495 110.024 64.1495 109.241C64.1495 108.459 64.292 107.77 64.5771 107.173C64.8654 106.573 65.2665 106.106 65.7802 105.771C66.2972 105.433 66.9004 105.264 67.5898 105.264C67.9876 105.264 68.3803 105.33 68.7681 105.463C69.1559 105.596 69.5089 105.811 69.8271 106.109C70.1452 106.404 70.3988 106.795 70.5877 107.283C70.7766 107.77 70.8711 108.37 70.8711 109.082V109.58H64.9847V108.565H69.6779C69.6779 108.134 69.5917 107.75 69.4194 107.412C69.2504 107.074 69.0084 106.807 68.6935 106.612C68.382 106.416 68.0141 106.318 67.5898 106.318C67.1225 106.318 66.7182 106.434 66.3768 106.666C66.0387 106.895 65.7785 107.193 65.5962 107.561C65.4139 107.929 65.3228 108.323 65.3228 108.744V109.42C65.3228 109.997 65.4222 110.486 65.6211 110.887C65.8233 111.285 66.1033 111.588 66.4613 111.797C66.8192 112.002 67.2352 112.105 67.7092 112.105C68.0174 112.105 68.2958 112.062 68.5444 111.976C68.7963 111.886 69.0134 111.754 69.1957 111.578C69.378 111.399 69.5188 111.177 69.6183 110.912L70.7518 111.23C70.6325 111.615 70.4319 111.953 70.1502 112.244C69.8685 112.533 69.5205 112.758 69.1062 112.92C68.6919 113.08 68.2262 113.159 67.7092 113.159Z" fill="black"/>
<rect x="90" y="95.2051" width="164.67" height="25.59" rx="4" fill="#CCDFFF"/>
<path d="M99.2777 113.205L103.608 104.634V104.564H98.5817V103.023H105.517V104.599L101.192 113.205H99.2777ZM110.666 113.399C109.848 113.399 109.145 113.192 108.558 112.778C107.975 112.36 107.526 111.758 107.211 110.973C106.9 110.184 106.744 109.234 106.744 108.124C106.747 107.014 106.905 106.069 107.216 105.29C107.531 104.508 107.98 103.912 108.563 103.501C109.15 103.09 109.851 102.884 110.666 102.884C111.482 102.884 112.183 103.09 112.769 103.501C113.356 103.912 113.805 104.508 114.117 105.29C114.432 106.073 114.589 107.017 114.589 108.124C114.589 109.238 114.432 110.189 114.117 110.978C113.805 111.763 113.356 112.363 112.769 112.778C112.186 113.192 111.485 113.399 110.666 113.399ZM110.666 111.843C111.303 111.843 111.805 111.53 112.173 110.903C112.544 110.273 112.73 109.347 112.73 108.124C112.73 107.315 112.645 106.636 112.476 106.086C112.307 105.536 112.068 105.121 111.76 104.843C111.452 104.561 111.087 104.42 110.666 104.42C110.033 104.42 109.533 104.735 109.165 105.365C108.797 105.991 108.611 106.911 108.608 108.124C108.605 108.936 108.686 109.619 108.852 110.172C109.021 110.726 109.259 111.144 109.568 111.425C109.876 111.704 110.242 111.843 110.666 111.843ZM120.004 113.399C119.186 113.399 118.483 113.192 117.896 112.778C117.313 112.36 116.864 111.758 116.549 110.973C116.237 110.184 116.082 109.234 116.082 108.124C116.085 107.014 116.242 106.069 116.554 105.29C116.869 104.508 117.318 103.912 117.901 103.501C118.488 103.09 119.189 102.884 120.004 102.884C120.82 102.884 121.521 103.09 122.107 103.501C122.694 103.912 123.143 104.508 123.455 105.29C123.769 106.073 123.927 107.017 123.927 108.124C123.927 109.238 123.769 110.189 123.455 110.978C123.143 111.763 122.694 112.363 122.107 112.778C121.524 113.192 120.823 113.399 120.004 113.399ZM120.004 111.843C120.641 111.843 121.143 111.53 121.511 110.903C121.882 110.273 122.067 109.347 122.067 108.124C122.067 107.315 121.983 106.636 121.814 106.086C121.645 105.536 121.406 105.121 121.098 104.843C120.79 104.561 120.425 104.42 120.004 104.42C119.371 104.42 118.871 104.735 118.503 105.365C118.135 105.991 117.949 106.911 117.946 108.124C117.943 108.936 118.024 109.619 118.19 110.172C118.359 110.726 118.597 111.144 118.906 111.425C119.214 111.704 119.58 111.843 120.004 111.843ZM133.7 107.373V108.855H129.116V107.373H133.7ZM142.665 113.344C141.926 113.344 141.269 113.22 140.696 112.971C140.126 112.723 139.679 112.383 139.354 111.952C139.032 111.518 138.873 111.026 138.876 110.476C138.873 110.048 138.966 109.655 139.155 109.297C139.344 108.939 139.599 108.641 139.92 108.403C140.245 108.161 140.607 108.006 141.004 107.94V107.871C140.481 107.755 140.056 107.488 139.732 107.07C139.41 106.649 139.251 106.164 139.254 105.613C139.251 105.09 139.397 104.622 139.692 104.211C139.987 103.8 140.391 103.477 140.905 103.242C141.419 103.003 142.005 102.884 142.665 102.884C143.318 102.884 143.899 103.003 144.41 103.242C144.924 103.477 145.328 103.8 145.623 104.211C145.921 104.622 146.07 105.09 146.07 105.613C146.07 106.164 145.906 106.649 145.578 107.07C145.253 107.488 144.834 107.755 144.32 107.871V107.94C144.718 108.006 145.076 108.161 145.394 108.403C145.716 108.641 145.971 108.939 146.16 109.297C146.352 109.655 146.448 110.048 146.448 110.476C146.448 111.026 146.286 111.518 145.961 111.952C145.636 112.383 145.189 112.723 144.619 112.971C144.052 113.22 143.401 113.344 142.665 113.344ZM142.665 111.922C143.046 111.922 143.377 111.858 143.659 111.729C143.941 111.596 144.16 111.41 144.315 111.172C144.471 110.933 144.551 110.658 144.554 110.346C144.551 110.022 144.466 109.735 144.3 109.486C144.138 109.234 143.914 109.037 143.629 108.895C143.348 108.752 143.026 108.681 142.665 108.681C142.3 108.681 141.975 108.752 141.69 108.895C141.405 109.037 141.18 109.234 141.014 109.486C140.852 109.735 140.772 110.022 140.776 110.346C140.772 110.658 140.848 110.933 141.004 111.172C141.16 111.407 141.379 111.591 141.661 111.724C141.946 111.856 142.28 111.922 142.665 111.922ZM142.665 107.284C142.976 107.284 143.251 107.221 143.49 107.095C143.732 106.969 143.923 106.793 144.062 106.568C144.201 106.343 144.272 106.082 144.276 105.787C144.272 105.496 144.203 105.241 144.067 105.022C143.931 104.8 143.742 104.629 143.5 104.51C143.258 104.387 142.98 104.326 142.665 104.326C142.343 104.326 142.06 104.387 141.815 104.51C141.573 104.629 141.384 104.8 141.248 105.022C141.115 105.241 141.051 105.496 141.054 105.787C141.051 106.082 141.117 106.343 141.253 106.568C141.392 106.79 141.583 106.966 141.825 107.095C142.07 107.221 142.35 107.284 142.665 107.284ZM151.846 113.399C151.027 113.399 150.325 113.192 149.738 112.778C149.155 112.36 148.706 111.758 148.391 110.973C148.079 110.184 147.923 109.234 147.923 108.124C147.927 107.014 148.084 106.069 148.396 105.29C148.711 104.508 149.16 103.912 149.743 103.501C150.33 103.09 151.031 102.884 151.846 102.884C152.661 102.884 153.362 103.09 153.949 103.501C154.536 103.912 154.985 104.508 155.296 105.29C155.611 106.073 155.769 107.017 155.769 108.124C155.769 109.238 155.611 110.189 155.296 110.978C154.985 111.763 154.536 112.363 153.949 112.778C153.366 113.192 152.665 113.399 151.846 113.399ZM151.846 111.843C152.482 111.843 152.985 111.53 153.352 110.903C153.724 110.273 153.909 109.347 153.909 108.124C153.909 107.315 153.825 106.636 153.656 106.086C153.487 105.536 153.248 105.121 152.94 104.843C152.632 104.561 152.267 104.42 151.846 104.42C151.213 104.42 150.713 104.735 150.345 105.365C149.977 105.991 149.791 106.911 149.788 108.124C149.785 108.936 149.866 109.619 150.031 110.172C150.2 110.726 150.439 111.144 150.747 111.425C151.056 111.704 151.422 111.843 151.846 111.843ZM161.184 113.399C160.365 113.399 159.663 113.192 159.076 112.778C158.493 112.36 158.044 111.758 157.729 110.973C157.417 110.184 157.261 109.234 157.261 108.124C157.265 107.014 157.422 106.069 157.734 105.29C158.049 104.508 158.498 103.912 159.081 103.501C159.668 103.09 160.369 102.884 161.184 102.884C161.999 102.884 162.7 103.09 163.287 103.501C163.874 103.912 164.323 104.508 164.634 105.29C164.949 106.073 165.107 107.017 165.107 108.124C165.107 109.238 164.949 110.189 164.634 110.978C164.323 111.763 163.874 112.363 163.287 112.778C162.704 113.192 162.003 113.399 161.184 113.399ZM161.184 111.843C161.82 111.843 162.322 111.53 162.69 110.903C163.062 110.273 163.247 109.347 163.247 108.124C163.247 107.315 163.163 106.636 162.994 106.086C162.825 105.536 162.586 105.121 162.278 104.843C161.969 104.561 161.605 104.42 161.184 104.42C160.551 104.42 160.05 104.735 159.683 105.365C159.315 105.991 159.129 106.911 159.126 108.124C159.122 108.936 159.204 109.619 159.369 110.172C159.538 110.726 159.777 111.144 160.085 111.425C160.393 111.704 160.76 111.843 161.184 111.843ZM176.794 106.558L176.311 107.617H169.714L170.107 106.558H176.794ZM175.874 108.611L175.362 109.685H169.714L170.107 108.611H175.874ZM178.046 103.849L177.35 105.33C177.191 105.204 177.011 105.081 176.808 104.962C176.606 104.843 176.383 104.743 176.137 104.664C175.892 104.584 175.624 104.545 175.332 104.545C174.838 104.545 174.402 104.675 174.024 104.937C173.646 105.196 173.35 105.59 173.134 106.121C172.922 106.648 172.816 107.315 172.816 108.124C172.816 108.933 172.922 109.601 173.134 110.128C173.35 110.655 173.646 111.046 174.024 111.301C174.402 111.556 174.838 111.684 175.332 111.684C175.624 111.684 175.892 111.646 176.137 111.569C176.383 111.493 176.603 111.397 176.798 111.281C176.997 111.165 177.168 111.049 177.311 110.933L178.017 112.415C177.662 112.723 177.253 112.955 176.789 113.111C176.328 113.266 175.842 113.344 175.332 113.344C174.483 113.344 173.731 113.137 173.075 112.723C172.422 112.305 171.91 111.707 171.539 110.928C171.167 110.146 170.982 109.211 170.982 108.124C170.982 107.034 171.167 106.097 171.539 105.315C171.91 104.533 172.422 103.933 173.075 103.515C173.731 103.095 174.483 102.884 175.332 102.884C175.862 102.884 176.354 102.969 176.808 103.138C177.266 103.303 177.678 103.54 178.046 103.849ZM187.382 102.546L184.1 114.736H182.525L185.806 102.546H187.382ZM192.003 113.205V105.569H193.723V106.866H193.812C193.972 106.429 194.235 106.087 194.603 105.842C194.971 105.594 195.41 105.469 195.92 105.469C196.438 105.469 196.873 105.595 197.228 105.847C197.586 106.096 197.838 106.435 197.984 106.866H198.063C198.232 106.442 198.517 106.104 198.918 105.852C199.323 105.597 199.802 105.469 200.355 105.469C201.058 105.469 201.631 105.691 202.075 106.135C202.519 106.58 202.741 107.228 202.741 108.079V113.205H200.937V108.358C200.937 107.884 200.811 107.537 200.559 107.319C200.307 107.097 199.999 106.986 199.634 106.986C199.2 106.986 198.86 107.122 198.615 107.393C198.373 107.662 198.252 108.011 198.252 108.442V113.205H196.487V108.283C196.487 107.889 196.368 107.574 196.129 107.339C195.894 107.103 195.586 106.986 195.205 106.986C194.946 106.986 194.711 107.052 194.499 107.184C194.286 107.314 194.117 107.498 193.991 107.736C193.866 107.972 193.803 108.247 193.803 108.562V113.205H192.003ZM207.898 113.354C207.153 113.354 206.506 113.19 205.959 112.862C205.412 112.534 204.988 112.075 204.687 111.485C204.388 110.895 204.239 110.206 204.239 109.417C204.239 108.628 204.388 107.937 204.687 107.344C204.988 106.75 205.412 106.29 205.959 105.961C206.506 105.633 207.153 105.469 207.898 105.469C208.644 105.469 209.29 105.633 209.837 105.961C210.384 106.29 210.807 106.75 211.105 107.344C211.407 107.937 211.557 108.628 211.557 109.417C211.557 110.206 211.407 110.895 211.105 111.485C210.807 112.075 210.384 112.534 209.837 112.862C209.29 113.19 208.644 113.354 207.898 113.354ZM207.908 111.912C208.313 111.912 208.651 111.801 208.922 111.579C209.194 111.354 209.396 111.052 209.529 110.675C209.665 110.297 209.733 109.876 209.733 109.412C209.733 108.944 209.665 108.522 209.529 108.144C209.396 107.763 209.194 107.46 208.922 107.234C208.651 107.009 208.313 106.896 207.908 106.896C207.494 106.896 207.149 107.009 206.874 107.234C206.602 107.46 206.398 107.763 206.263 108.144C206.13 108.522 206.064 108.944 206.064 109.412C206.064 109.876 206.13 110.297 206.263 110.675C206.398 111.052 206.602 111.354 206.874 111.579C207.149 111.801 207.494 111.912 207.908 111.912ZM213.085 113.205V105.569H214.885V113.205H213.085ZM213.99 104.485C213.705 104.485 213.459 104.39 213.254 104.202C213.048 104.009 212.946 103.779 212.946 103.51C212.946 103.239 213.048 103.008 213.254 102.819C213.459 102.627 213.705 102.531 213.99 102.531C214.278 102.531 214.523 102.627 214.725 102.819C214.931 103.008 215.034 103.239 215.034 103.51C215.034 103.779 214.931 104.009 214.725 104.202C214.523 104.39 214.278 104.485 213.99 104.485ZM222.771 107.587L221.13 107.766C221.084 107.6 221.003 107.445 220.887 107.299C220.774 107.153 220.621 107.035 220.429 106.946C220.237 106.856 220.002 106.812 219.723 106.812C219.349 106.812 219.034 106.893 218.779 107.055C218.527 107.218 218.402 107.428 218.406 107.687C218.402 107.909 218.484 108.089 218.649 108.229C218.818 108.368 219.097 108.482 219.485 108.572L220.787 108.85C221.51 109.006 222.047 109.253 222.398 109.591C222.753 109.929 222.932 110.371 222.935 110.918C222.932 111.399 222.791 111.823 222.512 112.191C222.237 112.555 221.854 112.84 221.364 113.046C220.873 113.251 220.31 113.354 219.673 113.354C218.739 113.354 217.986 113.159 217.416 112.768C216.846 112.373 216.507 111.825 216.397 111.122L218.152 110.953C218.232 111.298 218.401 111.558 218.659 111.733C218.918 111.909 219.254 111.997 219.669 111.997C220.096 111.997 220.439 111.909 220.698 111.733C220.959 111.558 221.09 111.341 221.09 111.082C221.09 110.863 221.006 110.683 220.837 110.54C220.671 110.398 220.413 110.288 220.061 110.212L218.759 109.939C218.026 109.786 217.484 109.529 217.133 109.168C216.782 108.804 216.608 108.343 216.611 107.786C216.608 107.315 216.735 106.908 216.994 106.563C217.256 106.215 217.619 105.947 218.083 105.758C218.55 105.565 219.088 105.469 219.698 105.469C220.593 105.469 221.298 105.66 221.811 106.041C222.328 106.422 222.648 106.938 222.771 107.587Z" fill="black"/>
<path d="M29.375 163.934C28.6259 163.934 27.9879 163.73 27.4609 163.323C26.9339 162.912 26.5313 162.317 26.2528 161.538C25.9744 160.756 25.8352 159.811 25.8352 158.704C25.8352 157.604 25.9744 156.664 26.2528 155.885C26.5346 155.103 26.9389 154.506 27.4659 154.095C27.9962 153.681 28.6326 153.474 29.375 153.474C30.1174 153.474 30.7521 153.681 31.2791 154.095C31.8094 154.506 32.2138 155.103 32.4922 155.885C32.7739 156.664 32.9148 157.604 32.9148 158.704C32.9148 159.811 32.7756 160.756 32.4972 161.538C32.2188 162.317 31.8161 162.912 31.2891 163.323C30.7621 163.73 30.1241 163.934 29.375 163.934ZM29.375 162.84C30.1174 162.84 30.6941 162.482 31.1051 161.767C31.5161 161.051 31.7216 160.03 31.7216 158.704C31.7216 157.822 31.6271 157.072 31.4382 156.452C31.2526 155.832 30.9841 155.36 30.6328 155.035C30.2848 154.71 29.8655 154.548 29.375 154.548C28.6392 154.548 28.0642 154.911 27.6499 155.637C27.2356 156.359 27.0284 157.382 27.0284 158.704C27.0284 159.586 27.1212 160.335 27.3068 160.951C27.4924 161.568 27.7592 162.037 28.1072 162.358C28.4586 162.68 28.8812 162.84 29.375 162.84ZM38.3835 153.613V163.795H37.1506V154.906H37.0909L34.6051 156.556V155.303L37.1506 153.613H38.3835ZM44.9311 153.136L41.6499 165.326H40.576L43.8572 153.136H44.9311ZM49.623 163.934C48.874 163.934 48.236 163.73 47.709 163.323C47.182 162.912 46.7793 162.317 46.5009 161.538C46.2225 160.756 46.0833 159.811 46.0833 158.704C46.0833 157.604 46.2225 156.664 46.5009 155.885C46.7826 155.103 47.187 154.506 47.714 154.095C48.2443 153.681 48.8806 153.474 49.623 153.474C50.3655 153.474 51.0002 153.681 51.5272 154.095C52.0575 154.506 52.4618 155.103 52.7402 155.885C53.022 156.664 53.1628 157.604 53.1628 158.704C53.1628 159.811 53.0236 160.756 52.7452 161.538C52.4668 162.317 52.0641 162.912 51.5371 163.323C51.0101 163.73 50.3721 163.934 49.623 163.934ZM49.623 162.84C50.3655 162.84 50.9422 162.482 51.3532 161.767C51.7641 161.051 51.9696 160.03 51.9696 158.704C51.9696 157.822 51.8752 157.072 51.6863 156.452C51.5007 155.832 51.2322 155.36 50.8809 155.035C50.5328 154.71 50.1136 154.548 49.623 154.548C48.8873 154.548 48.3122 154.911 47.8979 155.637C47.4836 156.359 47.2765 157.382 47.2765 158.704C47.2765 159.586 47.3693 160.335 47.5549 160.951C47.7405 161.568 48.0073 162.037 48.3553 162.358C48.7066 162.68 49.1292 162.84 49.623 162.84ZM58.6316 153.613V163.795H57.3986V154.906H57.339L54.8532 156.556V155.303L57.3986 153.613H58.6316ZM65.1792 153.136L61.8979 165.326H60.824L64.1053 153.136H65.1792ZM66.5501 163.795V162.9L69.9109 159.221C70.3053 158.79 70.6301 158.416 70.8853 158.097C71.1405 157.776 71.3294 157.474 71.4521 157.193C71.578 156.908 71.641 156.609 71.641 156.298C71.641 155.94 71.5548 155.63 71.3825 155.368C71.2134 155.106 70.9814 154.904 70.6864 154.762C70.3915 154.619 70.06 154.548 69.6921 154.548C69.301 154.548 68.9596 154.629 68.668 154.791C68.3796 154.95 68.1559 155.174 67.9968 155.463C67.841 155.751 67.7631 156.089 67.7631 156.477H66.5898C66.5898 155.88 66.7274 155.356 67.0025 154.906C67.2776 154.455 67.6521 154.104 68.1261 153.852C68.6033 153.6 69.1386 153.474 69.7319 153.474C70.3285 153.474 70.8571 153.6 71.3178 153.852C71.7785 154.104 72.1398 154.443 72.4016 154.871C72.6635 155.298 72.7944 155.774 72.7944 156.298C72.7944 156.672 72.7264 157.039 72.5906 157.396C72.458 157.751 72.226 158.147 71.8945 158.585C71.5664 159.019 71.1107 159.549 70.5273 160.176L68.2404 162.622V162.701H72.9734V163.795H66.5501ZM78.3477 163.934C77.5986 163.934 76.9606 163.73 76.4336 163.323C75.9066 162.912 75.5039 162.317 75.2255 161.538C74.9471 160.756 74.8079 159.811 74.8079 158.704C74.8079 157.604 74.9471 156.664 75.2255 155.885C75.5072 155.103 75.9116 154.506 76.4386 154.095C76.9689 153.681 77.6052 153.474 78.3477 153.474C79.0901 153.474 79.7248 153.681 80.2518 154.095C80.7821 154.506 81.1864 155.103 81.4648 155.885C81.7466 156.664 81.8874 157.604 81.8874 158.704C81.8874 159.811 81.7482 160.756 81.4698 161.538C81.1914 162.317 80.7887 162.912 80.2617 163.323C79.7347 163.73 79.0967 163.934 78.3477 163.934ZM78.3477 162.84C79.0901 162.84 79.6668 162.482 80.0778 161.767C80.4888 161.051 80.6942 160.03 80.6942 158.704C80.6942 157.822 80.5998 157.072 80.4109 156.452C80.2253 155.832 79.9568 155.36 79.6055 155.035C79.2575 154.71 78.8382 154.548 78.3477 154.548C77.6119 154.548 77.0368 154.911 76.6225 155.637C76.2082 156.359 76.0011 157.382 76.0011 158.704C76.0011 159.586 76.0939 160.335 76.2795 160.951C76.4651 161.568 76.7319 162.037 77.0799 162.358C77.4312 162.68 77.8538 162.84 78.3477 162.84ZM83.7766 163.795V162.9L87.1374 159.221C87.5318 158.79 87.8567 158.416 88.1119 158.097C88.3671 157.776 88.556 157.474 88.6786 157.193C88.8046 156.908 88.8675 156.609 88.8675 156.298C88.8675 155.94 88.7814 155.63 88.609 155.368C88.44 155.106 88.208 154.904 87.913 154.762C87.618 154.619 87.2866 154.548 86.9187 154.548C86.5276 154.548 86.1862 154.629 85.8945 154.791C85.6062 154.95 85.3825 155.174 85.2234 155.463C85.0676 155.751 84.9897 156.089 84.9897 156.477H83.8164C83.8164 155.88 83.954 155.356 84.229 154.906C84.5041 154.455 84.8787 154.104 85.3526 153.852C85.8299 153.6 86.3652 153.474 86.9585 153.474C87.555 153.474 88.0837 153.6 88.5444 153.852C89.0051 154.104 89.3664 154.443 89.6282 154.871C89.89 155.298 90.021 155.774 90.021 156.298C90.021 156.672 89.953 157.039 89.8171 157.396C89.6845 157.751 89.4525 158.147 89.1211 158.585C88.793 159.019 88.3372 159.549 87.7539 160.176L85.467 162.622V162.701H90.1999V163.795H83.7766ZM95.435 163.934C94.8517 163.934 94.3263 163.818 93.859 163.586C93.3917 163.354 93.0172 163.036 92.7354 162.632C92.4537 162.227 92.2996 161.767 92.2731 161.249H93.4663C93.5127 161.71 93.7215 162.091 94.0927 162.393C94.4672 162.691 94.9147 162.84 95.435 162.84C95.8526 162.84 96.2238 162.743 96.5487 162.547C96.8768 162.352 97.1336 162.083 97.3192 161.742C97.5082 161.397 97.6026 161.008 97.6026 160.573C97.6026 160.129 97.5049 159.733 97.3093 159.385C97.1171 159.034 96.8519 158.757 96.5138 158.555C96.1758 158.353 95.7897 158.25 95.3555 158.247C95.0439 158.243 94.7241 158.291 94.396 158.391C94.0678 158.487 93.7977 158.611 93.5856 158.764L92.4322 158.624L93.0487 153.613H98.3384V154.707H94.0827L93.7248 157.71H93.7844C93.9933 157.544 94.2551 157.406 94.57 157.297C94.8848 157.188 95.2129 157.133 95.5543 157.133C96.1774 157.133 96.7326 157.282 97.2198 157.58C97.7103 157.875 98.0948 158.28 98.3732 158.794C98.6549 159.307 98.7958 159.894 98.7958 160.553C98.7958 161.203 98.65 161.783 98.3583 162.294C98.07 162.801 97.6722 163.202 97.1651 163.497C96.658 163.788 96.0813 163.934 95.435 163.934Z" fill="#606060"/>
<rect x="272.31" y="141.5" width="99.19" height="34.59" rx="17.295" stroke="black"/>
<path d="M290.461 153.818L293.483 162.389H293.603L296.625 153.818H297.918L294.179 164H292.907L289.168 153.818H290.461ZM301.736 164.159C301.047 164.159 300.442 163.995 299.922 163.667C299.404 163.339 299 162.88 298.708 162.29C298.42 161.7 298.276 161.01 298.276 160.222C298.276 159.426 298.42 158.732 298.708 158.138C299 157.545 299.404 157.085 299.922 156.756C300.442 156.428 301.047 156.264 301.736 156.264C302.426 156.264 303.029 156.428 303.546 156.756C304.066 157.085 304.471 157.545 304.759 158.138C305.051 158.732 305.196 159.426 305.196 160.222C305.196 161.01 305.051 161.7 304.759 162.29C304.471 162.88 304.066 163.339 303.546 163.667C303.029 163.995 302.426 164.159 301.736 164.159ZM301.736 163.105C302.26 163.105 302.691 162.971 303.029 162.702C303.367 162.434 303.617 162.081 303.779 161.643C303.942 161.206 304.023 160.732 304.023 160.222C304.023 159.711 303.942 159.236 303.779 158.795C303.617 158.354 303.367 157.998 303.029 157.726C302.691 157.454 302.26 157.318 301.736 157.318C301.212 157.318 300.782 157.454 300.444 157.726C300.105 157.998 299.855 158.354 299.693 158.795C299.53 159.236 299.449 159.711 299.449 160.222C299.449 160.732 299.53 161.206 299.693 161.643C299.855 162.081 300.105 162.434 300.444 162.702C300.782 162.971 301.212 163.105 301.736 163.105ZM306.987 164V156.364H308.161V164H306.987ZM307.584 155.091C307.355 155.091 307.158 155.013 306.992 154.857C306.83 154.701 306.749 154.514 306.749 154.295C306.749 154.077 306.83 153.889 306.992 153.734C307.158 153.578 307.355 153.5 307.584 153.5C307.813 153.5 308.008 153.578 308.171 153.734C308.336 153.889 308.419 154.077 308.419 154.295C308.419 154.514 308.336 154.701 308.171 154.857C308.008 155.013 307.813 155.091 307.584 155.091ZM310.31 164V156.364H311.443V157.517H311.523C311.662 157.139 311.914 156.833 312.278 156.597C312.643 156.362 313.054 156.244 313.511 156.244C313.598 156.244 313.705 156.246 313.835 156.249C313.964 156.253 314.062 156.258 314.128 156.264V157.457C314.088 157.447 313.997 157.433 313.854 157.413C313.715 157.389 313.568 157.378 313.412 157.378C313.041 157.378 312.709 157.456 312.418 157.612C312.129 157.764 311.901 157.976 311.732 158.248C311.566 158.516 311.483 158.823 311.483 159.168V164H310.31ZM320.629 153.818V164H319.456V153.818H320.629ZM323.812 153.818V154.713C323.812 154.985 323.763 155.275 323.663 155.583C323.567 155.888 323.425 156.185 323.236 156.473C323.05 156.758 322.825 157.007 322.56 157.219L321.923 156.702C322.132 156.403 322.313 156.094 322.465 155.772C322.621 155.447 322.699 155.101 322.699 154.733V153.818H323.812ZM327.59 164.159C326.9 164.159 326.295 163.995 325.775 163.667C325.258 163.339 324.854 162.88 324.562 162.29C324.274 161.7 324.129 161.01 324.129 160.222C324.129 159.426 324.274 158.732 324.562 158.138C324.854 157.545 325.258 157.085 325.775 156.756C326.295 156.428 326.9 156.264 327.59 156.264C328.279 156.264 328.882 156.428 329.399 156.756C329.92 157.085 330.324 157.545 330.612 158.138C330.904 158.732 331.05 159.426 331.05 160.222C331.05 161.01 330.904 161.7 330.612 162.29C330.324 162.88 329.92 163.339 329.399 163.667C328.882 163.995 328.279 164.159 327.59 164.159ZM327.59 163.105C328.113 163.105 328.544 162.971 328.882 162.702C329.22 162.434 329.471 162.081 329.633 161.643C329.795 161.206 329.877 160.732 329.877 160.222C329.877 159.711 329.795 159.236 329.633 158.795C329.471 158.354 329.22 157.998 328.882 157.726C328.544 157.454 328.113 157.318 327.59 157.318C327.066 157.318 326.635 157.454 326.297 157.726C325.959 157.998 325.709 158.354 325.546 158.795C325.384 159.236 325.303 159.711 325.303 160.222C325.303 160.732 325.384 161.206 325.546 161.643C325.709 162.081 325.959 162.434 326.297 162.702C326.635 162.971 327.066 163.105 327.59 163.105ZM336.241 156.364V157.358H332.125V156.364H336.241ZM333.358 164V155.31C333.358 154.872 333.461 154.508 333.666 154.216C333.872 153.924 334.138 153.705 334.467 153.56C334.795 153.414 335.141 153.341 335.506 153.341C335.794 153.341 336.029 153.364 336.212 153.411C336.394 153.457 336.53 153.5 336.619 153.54L336.281 154.554C336.222 154.534 336.139 154.509 336.033 154.479C335.93 154.45 335.794 154.435 335.625 154.435C335.237 154.435 334.957 154.532 334.785 154.728C334.616 154.924 334.531 155.21 334.531 155.588V164H333.358ZM341.286 156.364V157.358H337.17V156.364H341.286ZM338.403 164V155.31C338.403 154.872 338.506 154.508 338.711 154.216C338.917 153.924 339.183 153.705 339.512 153.56C339.84 153.414 340.186 153.341 340.551 153.341C340.839 153.341 341.074 153.364 341.257 153.411C341.439 153.457 341.575 153.5 341.664 153.54L341.326 154.554C341.266 154.534 341.184 154.509 341.078 154.479C340.975 154.45 340.839 154.435 340.67 154.435C340.282 154.435 340.002 154.532 339.83 154.728C339.661 154.924 339.576 155.21 339.576 155.588V164H338.403ZM342.931 164V156.364H344.064V157.517H344.144C344.283 157.139 344.535 156.833 344.899 156.597C345.264 156.362 345.675 156.244 346.132 156.244C346.219 156.244 346.326 156.246 346.456 156.249C346.585 156.253 346.683 156.258 346.749 156.264V157.457C346.709 157.447 346.618 157.433 346.475 157.413C346.336 157.389 346.189 157.378 346.033 157.378C345.662 157.378 345.33 157.456 345.039 157.612C344.75 157.764 344.522 157.976 344.353 158.248C344.187 158.516 344.104 158.823 344.104 159.168V164H342.931ZM351.109 164.159C350.373 164.159 349.739 163.997 349.205 163.672C348.675 163.344 348.265 162.886 347.977 162.3C347.692 161.71 347.549 161.024 347.549 160.241C347.549 159.459 347.692 158.77 347.977 158.173C348.265 157.573 348.666 157.106 349.18 156.771C349.697 156.433 350.3 156.264 350.99 156.264C351.387 156.264 351.78 156.33 352.168 156.463C352.556 156.596 352.909 156.811 353.227 157.109C353.545 157.404 353.799 157.795 353.988 158.283C354.176 158.77 354.271 159.37 354.271 160.082V160.58H348.385V159.565H353.078C353.078 159.134 352.992 158.75 352.819 158.412C352.65 158.074 352.408 157.807 352.093 157.612C351.782 157.416 351.414 157.318 350.99 157.318C350.522 157.318 350.118 157.434 349.777 157.666C349.439 157.895 349.178 158.193 348.996 158.561C348.814 158.929 348.723 159.323 348.723 159.744V160.42C348.723 160.997 348.822 161.486 349.021 161.887C349.223 162.285 349.503 162.588 349.861 162.797C350.219 163.002 350.635 163.105 351.109 163.105C351.417 163.105 351.696 163.062 351.944 162.976C352.196 162.886 352.413 162.754 352.596 162.578C352.778 162.399 352.919 162.177 353.018 161.912L354.152 162.23C354.032 162.615 353.832 162.953 353.55 163.244C353.268 163.533 352.92 163.758 352.506 163.92C352.092 164.08 351.626 164.159 351.109 164.159Z" fill="black"/>
</svg>
