<svg width="25" height="25" viewBox="0 0 25 25" fill="none" xmlns="http://www.w3.org/2000/svg">
<g clip-path="url(#clip0_45_254)">
<path d="M23.3531 1.94288C22.6733 1.26407 21.7518 0.882813 20.7911 0.882812C19.8304 0.882813 18.909 1.26407 18.2291 1.94288L1.96514 18.2069C1.49939 18.67 1.1301 19.2209 0.878635 19.8277C0.627171 20.4344 0.498524 21.0851 0.500137 21.7419V23.7949C0.500137 24.0601 0.605494 24.3144 0.79303 24.502C0.980567 24.6895 1.23492 24.7949 1.50014 24.7949H3.55314C4.2099 24.7967 4.86051 24.6683 5.46729 24.417C6.07408 24.1657 6.62499 23.7965 7.08814 23.3309L23.3531 7.06588C24.0316 6.38607 24.4127 5.46484 24.4127 4.50438C24.4127 3.54391 24.0316 2.62268 23.3531 1.94288ZM5.67414 21.9169C5.11014 22.4771 4.3481 22.7926 3.55314 22.7949H2.50014V21.7419C2.49913 21.3478 2.57629 20.9574 2.72717 20.5933C2.87806 20.2293 3.09965 19.8987 3.37914 19.6209L15.7221 7.27788L18.0221 9.57788L5.67414 21.9169ZM21.9381 5.65188L19.4321 8.15888L17.1321 5.86388L19.6391 3.35688C19.7902 3.20618 19.9694 3.08671 20.1666 3.00528C20.3638 2.92386 20.5751 2.88207 20.7884 2.8823C21.0017 2.88253 21.213 2.92478 21.41 3.00664C21.607 3.0885 21.7859 3.20836 21.9366 3.35938C22.0873 3.5104 22.2068 3.68962 22.2882 3.88681C22.3697 4.084 22.4114 4.2953 22.4112 4.50864C22.411 4.72199 22.3687 4.93319 22.2869 5.13021C22.205 5.32722 22.0852 5.50618 21.9341 5.65688L21.9381 5.65188Z" fill="black"/>
</g>
<defs>
<clipPath id="clip0_45_254">
<rect width="24" height="24" fill="white" transform="translate(0.5 0.794922)"/>
</clipPath>
</defs>
</svg>
