<svg width="2439" height="603" viewBox="0 0 2439 603" fill="none" xmlns="http://www.w3.org/2000/svg">
<path fill-rule="evenodd" clip-rule="evenodd" d="M1219.55 491.296C1120.65 564.193 977.274 603 853.804 603C680.731 603 524.929 539.118 407.017 432.727C397.753 424.369 406.001 412.966 417.176 419.413C544.412 493.385 701.767 537.924 864.263 537.924C973.868 537.924 1094.41 515.177 1205.27 468.191C1222 461.086 1235.99 479.176 1219.67 491.296H1219.55Z" fill="#F8981D"/>
<path fill-rule="evenodd" clip-rule="evenodd" d="M1260.67 444.369C1248 428.189 1177.06 436.667 1145.15 440.488C1135.47 441.623 1133.97 433.205 1142.7 427.115C1199.29 387.412 1292.11 398.875 1302.86 412.129C1313.74 425.563 1299.99 518.46 1246.98 562.82C1238.8 569.626 1231.09 565.984 1234.67 556.969C1246.63 527.177 1273.34 460.489 1260.67 444.309V444.369Z" fill="#F8981D"/>
<path fill-rule="evenodd" clip-rule="evenodd" d="M1147.42 146.511V107.883C1147.42 102.032 1151.9 98.092 1157.22 98.092H1330.41C1335.97 98.092 1340.39 102.092 1340.39 107.824V140.899C1340.39 146.451 1335.67 153.675 1327.37 165.198L1237.66 293.142C1270.95 292.365 1306.21 297.321 1336.45 314.336C1343.26 318.157 1345.11 323.829 1345.65 329.381V370.576C1345.65 376.248 1339.44 382.815 1332.92 379.412C1279.61 351.531 1208.86 348.486 1149.93 379.771C1143.89 382.995 1137.62 376.487 1137.62 370.815V331.65C1137.62 325.381 1137.74 314.694 1144.07 305.142L1248 156.183H1157.52C1151.96 156.183 1147.54 152.243 1147.54 146.451L1147.42 146.511ZM515.725 387.592H463.015C457.995 387.293 453.99 383.472 453.572 378.696V108.54C453.572 103.107 458.174 98.8084 463.792 98.8084H512.857C517.996 99.0472 522.12 102.928 522.419 107.883V143.168H523.435C536.224 109.077 560.309 93.1367 592.76 93.1367C625.211 93.1367 646.367 109.077 661.129 143.168C673.918 109.077 702.903 93.1367 733.92 93.1367C756.032 93.1367 780.176 102.211 794.878 122.69C811.612 145.436 808.145 178.392 808.145 207.408V377.86C808.145 383.233 803.544 387.592 797.926 387.592H745.275C740.016 387.233 735.832 383.054 735.832 377.92V234.692C735.832 223.349 736.788 194.871 734.338 184.124C730.394 165.915 718.62 160.84 703.381 160.84C690.592 160.84 677.324 169.377 671.886 182.99C666.448 196.662 666.985 219.349 666.985 234.692V377.86C666.985 383.233 662.443 387.592 656.826 387.592H604.175C598.915 387.233 594.732 383.054 594.732 377.92V234.692C594.732 204.542 599.573 160.243 562.221 160.243C524.869 160.243 525.825 203.468 525.825 234.692V377.86C525.825 383.233 521.283 387.592 515.666 387.592H515.725ZM1489.5 93.1367C1567.67 93.1367 1609.98 160.243 1609.98 245.499C1609.98 330.754 1563.25 393.323 1489.5 393.323C1415.75 393.323 1370.99 326.217 1370.99 242.693C1370.99 159.168 1413.3 93.1963 1489.5 93.1963V93.1367ZM1489.98 148.302C1451.13 148.302 1448.68 201.139 1448.68 234.155C1448.68 267.171 1448.21 337.62 1489.5 337.62C1530.8 337.62 1532.29 280.783 1532.29 246.096C1532.29 223.349 1531.34 196.065 1524.4 174.452C1518.49 155.705 1506.71 148.302 1489.98 148.302ZM1711.4 387.592H1658.93C1653.67 387.233 1649.49 383.054 1649.49 377.92V107.644C1649.85 102.689 1654.21 98.8084 1659.53 98.8084H1708.41C1713.02 99.0472 1716.78 102.152 1717.8 106.391V147.705H1718.81C1733.57 110.749 1754.19 93.1367 1790.59 93.1367C1814.19 93.1367 1837.32 101.674 1852.08 124.958C1865.83 146.571 1865.83 182.93 1865.83 209.08V379.054C1865.23 383.83 1860.93 387.592 1855.73 387.592H1802.9C1798 387.293 1794.11 383.711 1793.52 379.054V232.364C1793.52 202.811 1796.98 159.586 1760.59 159.586C1747.8 159.586 1735.96 168.124 1730.11 181.199C1722.76 197.677 1721.74 214.155 1721.74 232.364V377.8C1721.62 383.174 1717.08 387.532 1711.46 387.532L1711.4 387.592ZM1898.76 366.158C1898.76 352.546 1910.35 341.561 1924.7 341.561C1939.04 341.561 1950.63 352.606 1950.63 366.158C1950.63 379.711 1939.04 390.756 1924.7 390.756C1910.35 390.756 1898.76 379.711 1898.76 366.158ZM1009.37 258.574C1009.37 279.111 1009.85 296.186 999.506 314.396C991.139 329.202 977.812 338.337 963.051 338.337C942.851 338.337 931.018 322.933 931.018 300.187C931.018 255.35 971.298 247.23 1009.37 247.23V258.633V258.574ZM1062.5 386.875C1059.03 389.98 1054.01 390.219 1050.07 388.129C1032.56 373.621 1029.45 366.875 1019.89 353.083C990.96 382.517 970.461 391.353 932.99 391.353C888.646 391.353 854.103 364.009 854.103 309.321C854.103 266.574 877.291 237.558 910.28 223.289C938.847 210.752 978.768 208.483 1009.37 205.08V198.274C1009.37 185.736 1010.38 170.93 1002.97 160.123C996.578 150.451 984.267 146.451 973.39 146.451C953.309 146.451 935.44 156.72 931.018 178.034C930.121 182.751 926.655 187.467 921.874 187.706L870.837 182.213C866.534 181.258 861.753 177.795 862.948 171.228C874.661 109.316 930.659 90.6291 980.741 90.6291C1006.38 90.6291 1039.91 97.4352 1060.11 116.839C1085.74 140.78 1083.29 172.661 1083.29 207.408V289.38C1083.29 314.038 1093.57 324.844 1103.19 338.158C1106.54 342.934 1107.32 348.665 1103.02 352.128C1092.26 361.143 1073.13 377.741 1062.62 387.114L1062.5 386.995V386.875ZM318.687 258.574C318.687 279.111 319.165 296.186 308.826 314.396C300.459 329.202 287.132 338.337 272.371 338.337C252.171 338.337 240.338 322.933 240.338 300.187C240.338 255.35 280.618 247.23 318.687 247.23V258.633V258.574ZM371.816 386.875C368.35 389.98 363.27 390.219 359.386 388.129C341.875 373.621 338.767 366.875 329.205 353.083C300.28 382.517 279.782 391.353 242.37 391.353C198.026 391.353 163.483 364.009 163.483 309.321C163.483 266.574 186.671 237.558 219.66 223.289C248.227 210.752 288.148 208.483 318.747 205.08V198.274C318.747 185.736 319.703 170.93 312.352 160.123C305.958 150.451 293.647 146.451 282.77 146.451C262.689 146.451 244.82 156.72 240.398 178.034C239.501 182.751 236.035 187.467 231.254 187.706L180.217 182.213C175.914 181.258 171.133 177.795 172.328 171.228C184.041 109.316 239.979 90.6291 290.12 90.6291C315.759 90.6291 349.286 97.4352 369.486 116.839C395.124 140.78 392.674 172.661 392.674 207.408V289.38C392.674 314.038 402.953 324.844 412.575 338.158C415.921 342.934 416.698 348.665 412.395 352.128C401.638 361.143 382.514 377.741 371.996 387.114L371.876 386.995L371.816 386.875ZM2086 99.2264H2107.03C2111.51 99.2264 2116.06 103.107 2116.06 107.465V147.526C2130.76 116.242 2154.54 93.5546 2191.12 93.5546C2219.63 93.5546 2241.02 103.764 2256.68 125.854C2273.29 149.675 2276.22 182.631 2276.22 212.125V379.174C2276.22 383.592 2271.68 387.472 2267.2 387.472H2242.69C2238.21 387.472 2233.67 383.592 2233.67 379.174V212.125C2233.67 195.647 2232.65 174.094 2225.36 159.347C2218.31 144.123 2202.35 132.123 2187.23 132.182C2171.52 132.182 2151.14 143.705 2138.53 161.676C2123.41 183.228 2119.46 207.05 2119.46 234.334V379.472C2119.46 383.592 2114.98 387.532 2110.44 387.532H2085.94C2081.39 387.532 2076.85 383.413 2076.91 379.233V107.525C2076.91 103.107 2081.39 99.2264 2085.94 99.2264H2086ZM1978.24 24.8961C1978.24 11.1645 1990.02 0 2004.48 0C2018.94 0 2030.72 11.1645 2030.72 24.8961C2030.72 38.6278 2018.94 49.7923 2004.48 49.7923C1990.02 49.7923 1978.24 38.6278 1978.24 24.8961ZM2016.91 387.532H1992.11C1987.63 387.532 1983.08 383.592 1983.08 379.293L1983.2 108.779C1983.2 104.421 1987.75 100.48 1992.17 100.48H2016.85C2021.33 100.48 2025.87 104.421 2025.87 108.779V379.353C2025.87 383.711 2021.39 387.532 2016.91 387.592V387.532Z" fill="#231F20"/>
</svg>
