<svg width="591" height="603" viewBox="0 0 591 603" fill="none" xmlns="http://www.w3.org/2000/svg">
<g clip-path="url(#clip0_125_486)">
<path d="M590.94 308.2C590.94 283.41 588.928 265.32 584.575 246.56H301.5V358.449H467.659C464.31 386.255 446.22 428.13 406.019 456.268L405.456 460.014L494.959 529.351L501.16 529.97C558.109 477.374 590.94 399.989 590.94 308.2Z" fill="#4285F4"/>
<path d="M301.5 603C382.904 603 451.243 576.199 501.16 529.97L406.019 456.269C380.56 474.024 346.389 486.419 301.5 486.419C221.77 486.419 154.101 433.825 129.979 361.13L126.443 361.431L33.3763 433.456L32.1592 436.839C81.7387 535.328 183.579 603 301.5 603Z" fill="#34A853"/>
<path d="M129.979 361.13C123.614 342.371 119.93 322.269 119.93 301.5C119.93 280.729 123.614 260.63 129.644 241.87L129.475 237.875L35.2424 164.692L32.1592 166.159C11.7251 207.029 0 252.925 0 301.5C0 350.075 11.7251 395.969 32.1592 436.839L129.979 361.13Z" fill="#FBBC05"/>
<path d="M301.5 116.579C358.114 116.579 396.303 141.034 418.079 161.471L503.169 78.39C450.91 29.8151 382.904 0 301.5 0C183.579 0 81.7387 67.6695 32.1592 166.159L129.644 241.87C154.101 169.175 221.77 116.579 301.5 116.579Z" fill="#EB4335"/>
</g>
<defs>
<clipPath id="clip0_125_486">
<rect width="590.94" height="603" fill="white"/>
</clipPath>
</defs>
</svg>
