<svg width="909" height="603" viewBox="0 0 909 603" fill="none" xmlns="http://www.w3.org/2000/svg">
<g clip-path="url(#clip0_125_522)">
<path fill-rule="evenodd" clip-rule="evenodd" d="M431.967 537.99C252.529 554.54 65.5064 528.469 39.3079 388.233C26.503 319.115 58.0363 245.811 99.8065 200.239V175.934C24.5521 241.91 -16.232 325.429 7.26372 424.072C37.2718 550.61 197.741 622.268 442.743 598.474C539.72 589.074 666.563 557.896 754.799 509.429V440.63C674.721 488.345 542.302 527.746 431.996 537.99H431.967ZM180.076 220.528H132.936V357.402C132.936 382.047 144.84 403.372 180.091 406.727V220.507L180.076 220.528ZM306.742 258.198C320.419 258.198 326.109 264.951 326.109 275.919V404.84H372.753V275.656C372.753 249.479 358.799 220.571 317.844 220.571L221.485 220.521V404.84H268.143V258.191H306.735L306.742 258.198ZM461.819 404.578C423.752 404.578 407.634 378.095 407.634 352.025V170.259H454.271V220.521H489.387V258.191H454.271V349.151C454.271 359.778 459.308 365.702 470.403 365.702H489.394V404.578H461.819ZM740.263 144.011H693.215V353.543C693.215 378.102 705.091 399.456 740.263 402.868V144.011ZM547.644 327.131C547.644 350.996 562.57 368.533 588.974 368.533C609.668 368.533 619.862 362.786 631.809 350.975L660.632 378.429C642.159 396.682 622.792 407.777 588.627 407.777C544.005 407.777 501.241 383.416 501.241 312.404C501.241 251.678 538.606 217.371 587.598 217.371C637.399 217.371 666.023 257.545 666.023 310.276V327.117H547.644V327.131ZM585.555 255.977C569.593 255.977 557.32 264.192 552.127 275.273C549.098 281.942 547.992 287.142 547.644 295.328H619.522C618.599 275.287 609.519 255.977 585.555 255.977ZM132.95 194.982H179.927V150.396H132.936V194.982H132.95ZM790.88 181.454C780.508 181.454 772.237 173.082 772.237 162.725C772.237 152.417 780.508 143.997 790.88 143.997C801.202 143.997 809.679 152.417 809.679 162.725C809.679 173.082 801.202 181.454 790.88 181.454ZM790.88 147.132C782.332 147.132 775.464 154.198 775.464 162.739C775.464 171.323 782.332 178.261 790.88 178.261C799.428 178.261 806.522 171.309 806.522 162.725C806.522 154.198 799.428 147.132 790.88 147.132ZM783.467 173.948C782.998 173.948 782.686 173.487 782.686 173.097V152.878C782.686 151.687 783.069 151.204 784.105 151.055C785.24 150.928 788.198 150.786 789.851 150.786C795.683 150.786 799.109 152.502 799.109 157.915V158.305C799.109 161.654 797.456 163.47 794.895 164.286L799.847 172.671C799.918 172.799 799.975 173.097 799.975 173.267C799.975 173.586 799.804 173.955 799.208 173.955H795.711C795.392 173.955 795.122 173.778 795.002 173.508L790.27 165.463C790.128 165.3 789.731 165.109 789.603 165.109H787.446V173.125C787.446 173.515 787.163 173.976 786.645 173.976H783.495L783.467 173.948ZM790.242 161.462C793.249 161.462 794.64 160.448 794.64 158.305V157.915C794.64 155.645 793.249 154.936 790.242 154.936H787.262V161.356C787.702 161.356 789.589 161.441 790.149 161.455L790.242 161.462ZM904.655 174.274C862.091 -33.5124 458.627 -46.6933 198.55 111.619V129.113C458.301 -4.45487 826.812 -3.64615 860.367 187.782C871.625 251.104 835.963 317.072 772.237 355.061V404.72C848.889 376.606 927.513 285.666 904.655 174.274Z" fill="black"/>
</g>
<defs>
<clipPath id="clip0_125_522">
<rect width="908.047" height="603" fill="white" transform="translate(0.630859)"/>
</clipPath>
</defs>
</svg>
