<svg width="604" height="603" viewBox="0 0 604 603" fill="none" xmlns="http://www.w3.org/2000/svg">
<path d="M111.3 414.69L30.2012 350.654L77.9371 262.286L149.652 286.284L111.3 414.69Z" fill="url(#paint0_linear_125_515)"/>
<path d="M575.309 172.797L565.392 492.105L353.009 577.17L237.355 502.506L575.309 172.797Z" fill="#087CFA"/>
<path d="M575.309 172.797L470.217 275.307L335.272 109.751L401.885 34.8516L575.309 172.797Z" fill="url(#paint1_linear_125_515)"/>
<path d="M237.355 502.506L68.4589 563.546L103.829 439.681L149.652 286.284L23.9971 244.253L103.829 25.835L284.262 47.1472L470.217 275.307L237.355 502.506Z" fill="url(#paint2_linear_125_515)"/>
<path d="M129.852 129.221H474.41V473.779H129.852V129.221Z" fill="black"/>
<path d="M172.802 408.655H302.023V430.203H172.802V408.655ZM237.299 195.947V172.411H173.042V195.947H191.057V277.262H173.042V300.817H237.299V277.262H219.322V195.947H237.299ZM298.909 302.64C290.152 302.928 281.469 300.95 273.701 296.897C267.314 293.471 261.627 288.877 256.934 283.353L274.676 263.534C277.912 267.199 281.667 270.365 285.827 272.956C289.53 275.257 293.814 276.451 298.174 276.395C300.504 276.512 302.831 276.128 305 275.268C307.168 274.408 309.126 273.093 310.743 271.411C314.204 266.736 315.841 260.959 315.345 255.163V172.279H344.049V256.416C344.178 263.229 343.113 270.011 340.902 276.456C339.012 281.816 335.923 286.672 331.87 290.656C327.817 294.639 322.908 297.644 317.517 299.441C311.394 301.504 304.964 302.511 298.504 302.418" fill="white"/>
<defs>
<linearGradient id="paint0_linear_125_515" x1="64.1037" y1="340.151" x2="338.523" y2="326.694" gradientUnits="userSpaceOnUse">
<stop offset="0.09" stop-color="#FC801D"/>
<stop offset="0.23" stop-color="#B07F61"/>
<stop offset="0.41" stop-color="#577DB3"/>
<stop offset="0.53" stop-color="#1E7CE6"/>
<stop offset="0.59" stop-color="#087CFA"/>
</linearGradient>
<linearGradient id="paint1_linear_125_515" x1="511.468" y1="311.732" x2="420.481" y2="38.2057" gradientUnits="userSpaceOnUse">
<stop stop-color="#FE2857"/>
<stop offset="0.08" stop-color="#CB3979"/>
<stop offset="0.16" stop-color="#9E4997"/>
<stop offset="0.25" stop-color="#7557B2"/>
<stop offset="0.34" stop-color="#5362C8"/>
<stop offset="0.44" stop-color="#386CDA"/>
<stop offset="0.54" stop-color="#2373E8"/>
<stop offset="0.66" stop-color="#1478F2"/>
<stop offset="0.79" stop-color="#0B7BF8"/>
<stop offset="1" stop-color="#087CFA"/>
</linearGradient>
<linearGradient id="paint2_linear_125_515" x1="107.86" y1="153.013" x2="451.855" y2="724.364" gradientUnits="userSpaceOnUse">
<stop stop-color="#FE2857"/>
<stop offset="0.08" stop-color="#FE295F"/>
<stop offset="0.21" stop-color="#FF2D76"/>
<stop offset="0.3" stop-color="#FF318C"/>
<stop offset="0.38" stop-color="#EA3896"/>
<stop offset="0.55" stop-color="#B248AE"/>
<stop offset="0.79" stop-color="#5A63D6"/>
<stop offset="1" stop-color="#087CFA"/>
</linearGradient>
</defs>
</svg>
