<svg width="910" height="603" viewBox="0 0 910 603" fill="none" xmlns="http://www.w3.org/2000/svg">
<g clip-path="url(#clip0_125_504)">
<path d="M99.0896 397.656C99.0896 432.353 106.689 458.94 116.666 475.043C129.718 496.128 149.151 505.049 168.99 505.049C194.63 505.049 218.008 498.735 263.139 436.35C299.278 386.418 341.857 316.271 370.513 272.248L419.067 197.756C452.77 146.029 491.752 88.5095 536.535 49.5259C573.023 17.6671 612.469 0 652.089 0C718.683 0 782.087 38.5202 830.582 110.869C883.718 190.052 909.474 289.741 909.474 392.674C909.474 453.843 897.409 498.793 876.873 534.359C857.034 568.708 818.4 603 753.314 603V505.049C809.003 505.049 822.925 453.901 822.925 395.397C822.925 311.984 803.434 219.42 760.565 153.27C730.169 106.35 690.723 77.6775 647.332 77.6775C600.461 77.6775 562.697 113.07 520.234 176.092C497.669 209.573 474.523 250.41 448.535 296.46L419.879 347.145C362.392 449.035 347.832 472.263 319.059 510.552C268.708 577.571 225.665 603 168.99 603C101.816 603 59.2955 573.922 33.0174 530.13C11.4961 494.39 0.938477 447.529 0.938477 394.18L99.0896 397.656Z" fill="#0081FB"/>
<path d="M78.3223 117.762C123.337 48.4833 188.249 0 262.733 0C305.833 0 348.702 12.7435 393.485 49.2942C442.444 89.2046 494.652 155.007 559.796 263.385L583.116 302.253C639.501 396.092 671.58 444.343 690.317 467.108C714.448 496.36 731.387 505.049 753.314 505.049C809.003 505.049 822.925 453.901 822.925 395.397L909.474 392.674C909.474 453.843 897.408 498.793 876.873 534.359C857.034 568.708 818.4 603 753.314 603C712.882 603 677.032 594.195 637.412 556.892C606.958 528.219 571.34 477.303 543.96 431.484L462.515 295.476C421.619 227.24 384.087 176.382 362.392 153.328C339.072 128.536 309.024 98.5885 261.166 98.5885C222.358 98.5885 189.467 125.755 161.913 167.346L78.3223 117.762Z" fill="url(#paint0_linear_125_504)"/>
<path d="M261.167 98.5885C222.359 98.5885 189.468 125.755 161.913 167.346C122.931 226.082 99.0896 313.606 99.0896 397.656C99.0896 432.353 106.689 458.94 116.666 475.043L33.0174 530.13C11.4961 494.39 0.938477 447.529 0.938477 394.18C0.938477 297.098 27.6226 195.903 78.3224 117.762C123.337 48.4833 188.249 0 262.733 0L261.167 98.5885Z" fill="url(#paint1_linear_125_504)"/>
</g>
<defs>
<linearGradient id="paint0_linear_125_504" x1="193.702" y1="369.388" x2="819.266" y2="401.049" gradientUnits="userSpaceOnUse">
<stop stop-color="#0064E1"/>
<stop offset="0.4" stop-color="#0064E1"/>
<stop offset="0.8" stop-color="#0073EE"/>
<stop offset="1" stop-color="#0082FB"/>
</linearGradient>
<linearGradient id="paint1_linear_125_504" x1="143.118" y1="438.84" x2="143.118" y2="208.356" gradientUnits="userSpaceOnUse">
<stop stop-color="#0082FB"/>
<stop offset="1" stop-color="#0064E0"/>
</linearGradient>
<clipPath id="clip0_125_504">
<rect width="909" height="603" fill="white" transform="translate(0.764648)"/>
</clipPath>
</defs>
</svg>
