<svg width="604" height="603" viewBox="0 0 604 603" fill="none" xmlns="http://www.w3.org/2000/svg">
<path d="M355.881 0.871094L355.643 133.948L355.405 267.025L344.474 236.132V236.053L330.295 532.308C344.236 571.597 351.682 592.589 351.762 592.668C351.841 592.747 359.762 593.222 369.347 593.698C398.338 595.123 434.301 598.213 461.629 601.619C467.966 602.411 473.353 602.807 473.749 602.49C474.145 602.173 474.224 466.72 474.145 301.403L473.907 0.871094H355.881Z" fill="#B1060F" stroke="black" stroke-width="0.084073"/>
<path d="M142.403 0.475213V301.324C142.403 466.799 142.562 602.332 142.799 602.57C143.037 602.807 153.255 601.777 165.613 600.431C177.97 599.084 195 597.342 203.476 596.629C216.467 595.52 255.44 593.064 259.875 592.985C261.222 592.985 261.301 586.252 261.46 465.532L261.697 338.079L271.124 364.694C272.549 368.813 273.025 370.081 274.451 374.121L288.63 77.9451C285.62 69.4693 287.204 73.9052 283.798 64.2413C272.233 31.5265 262.41 3.88134 262.014 2.61394L261.222 0.395996H142.403V0.475213Z" fill="#B1060F" stroke="black" stroke-width="0.084073"/>
<path d="M355.881 0.871094L355.643 133.948L355.405 267.025L344.474 236.132V236.053L330.295 532.308C344.236 571.597 351.682 592.589 351.762 592.668C351.841 592.747 359.762 593.222 369.347 593.698C398.338 595.123 434.301 598.213 461.629 601.619C467.966 602.411 473.353 602.807 473.749 602.49C474.145 602.173 474.224 466.72 474.145 301.403L473.907 0.871094H355.881Z" fill="#B1060F" stroke="black" stroke-width="0.084073"/>
<path d="M142.403 0.475213V301.324C142.403 466.799 142.562 602.332 142.799 602.57C143.037 602.807 153.255 601.777 165.613 600.431C177.97 599.084 195 597.342 203.476 596.629C216.467 595.52 255.44 593.064 259.875 592.985C261.222 592.985 261.301 586.252 261.46 465.532L261.697 338.079L271.124 364.694C272.549 368.813 273.025 370.081 274.451 374.121L288.63 77.9451C285.62 69.4693 287.204 73.9052 283.798 64.2413C272.233 31.5265 262.41 3.88134 262.014 2.61394L261.222 0.395996H142.403V0.475213Z" fill="#B1060F" stroke="black" stroke-width="0.084073"/>
<path d="M142.403 0.475213V169.356L261.381 484.939C261.381 477.731 261.381 473.77 261.46 465.532L261.697 338.079L271.124 364.694C323.404 512.98 351.524 592.51 351.683 592.668C351.762 592.747 359.683 593.223 369.268 593.698C398.26 595.124 434.222 598.213 461.551 601.619C467.888 602.411 473.274 602.807 473.67 602.49C473.908 602.253 474.066 535.873 474.066 442.164L355.723 101.709L355.643 133.948L355.406 267.025L344.474 236.132C333.781 205.952 326.652 185.753 283.639 64.2413C272.074 31.5265 262.252 3.88134 261.856 2.61394L261.064 0.395996H142.403V0.475213Z" fill="url(#paint0_radial_125_524)"/>
<path d="M142.403 0.475213L261.618 338.317V338.158L271.044 364.774C323.404 512.98 351.524 592.51 351.683 592.668C351.762 592.747 359.683 593.223 369.268 593.698C398.26 595.124 434.222 598.213 461.551 601.619C467.808 602.411 473.274 602.807 473.591 602.49L355.406 266.946V267.025L344.474 236.132C333.781 205.952 326.652 185.753 283.639 64.2413C272.074 31.5265 262.252 3.88134 261.856 2.61394L261.064 0.395996H201.733L142.403 0.475213Z" fill="#E50914"/>
<defs>
<radialGradient id="paint0_radial_125_524" cx="0" cy="0" r="1" gradientUnits="userSpaceOnUse" gradientTransform="translate(302.682 298.006) rotate(-19.1007) scale(21.8586 800.71)">
<stop/>
<stop offset="1" stop-opacity="0"/>
</radialGradient>
</defs>
</svg>
