<svg width="913" height="603" viewBox="0 0 913 603" fill="none" xmlns="http://www.w3.org/2000/svg">
<path d="M340.624 179.615V125.328C345.986 124.993 351.348 124.658 356.709 124.658C505.494 119.966 603.009 252.667 603.009 252.667C603.009 252.667 497.787 398.771 384.858 398.771C369.778 398.771 355.034 396.426 340.959 391.734V226.864C398.932 233.901 410.661 259.369 445.176 317.342L522.585 252.332C522.585 252.332 465.952 178.274 370.783 178.274C360.73 177.939 350.677 178.609 340.624 179.615ZM340.624 0V81.0947L356.709 80.0894C563.467 73.0522 698.513 249.651 698.513 249.651C698.513 249.651 543.696 437.978 382.512 437.978C368.438 437.978 354.699 436.638 340.959 434.292V484.557C352.353 485.898 364.081 486.903 375.475 486.903C525.601 486.903 634.174 410.165 739.396 319.687C756.821 333.762 828.198 367.607 842.942 382.351C743.082 466.127 510.186 533.482 378.156 533.482C365.422 533.482 353.358 532.812 341.295 531.472V602.178H911.638V0H340.624ZM340.624 391.734V434.627C201.892 409.83 163.355 265.401 163.355 265.401C163.355 265.401 230.041 191.678 340.624 179.615V226.529H340.289C282.317 219.492 236.743 273.778 236.743 273.778C236.743 273.778 262.546 365.261 340.624 391.734ZM94.3244 259.369C94.3244 259.369 176.424 138.062 340.959 125.328V81.0947C158.664 95.8392 1.16602 249.986 1.16602 249.986C1.16602 249.986 90.3031 508.015 340.624 531.472V484.557C156.988 461.77 94.3244 259.369 94.3244 259.369Z" fill="#76B900"/>
</svg>
