<svg width="604" height="603" viewBox="0 0 604 603" fill="none" xmlns="http://www.w3.org/2000/svg">
<g clip-path="url(#clip0_125_534)">
<path d="M302.179 0C135.765 0 0.678711 135.086 0.678711 301.5C0.678711 467.914 135.765 603 302.179 603C468.593 603 603.679 467.914 603.679 301.5C603.679 135.086 468.593 0 302.179 0Z" fill="#1ED760"/>
<path d="M494.974 271.232C488.614 271.232 484.728 269.701 479.31 266.521C392.746 214.819 237.992 202.453 137.767 230.365C133.409 231.543 127.874 233.545 122.103 233.545C106.086 233.545 93.7197 221.061 93.7197 204.808C93.7197 188.32 103.966 178.898 114.919 175.718C157.671 163.234 205.604 157.228 257.778 157.228C346.579 157.228 439.503 175.718 507.458 215.29C516.997 220.707 523.122 228.245 523.122 242.731C523.239 259.455 509.813 271.232 494.974 271.232ZM457.286 363.92C450.927 363.92 446.687 361.093 442.329 358.856C366.365 313.866 253.067 295.729 152.253 323.17C146.364 324.701 143.302 326.35 137.767 326.35C124.812 326.35 114.212 315.751 114.212 302.796C114.212 289.84 120.572 281.125 133.056 277.592C166.857 268.052 201.365 261.104 252.007 261.104C330.915 261.104 407.115 280.654 467.179 316.457C477.072 322.346 480.959 329.883 480.959 340.365C480.723 353.32 470.595 363.92 457.286 363.92ZM424.545 443.653C419.481 443.653 416.301 442.121 411.59 439.295C335.744 393.599 247.414 391.597 160.262 409.498C155.551 410.676 149.309 412.678 145.776 412.678C133.998 412.678 126.579 403.374 126.579 393.481C126.579 380.997 133.998 374.991 143.067 373.106C242.585 351.083 344.342 353.085 431.141 404.905C438.56 409.616 442.918 413.856 442.918 424.927C442.918 435.997 434.438 443.653 424.545 443.653Z" fill="black"/>
</g>
<defs>
<clipPath id="clip0_125_534">
<rect width="603" height="603" fill="white" transform="translate(0.678711)"/>
</clipPath>
</defs>
</svg>
