<svg width="606" height="603" viewBox="0 0 606 603" fill="none" xmlns="http://www.w3.org/2000/svg">
<g clip-path="url(#clip0_125_508)">
<path d="M303.201 603L388.178 126.536C469.166 126.536 494.72 135.392 498.415 171.535C498.415 171.535 552.754 151.334 580.16 110.311C473.22 60.903 365.771 58.6794 365.771 58.6794L303.069 134.808L303.21 134.799L240.508 58.67C240.508 58.67 133.068 60.903 26.1289 110.302C53.5063 151.325 107.874 171.525 107.874 171.525C111.588 135.383 137.103 126.526 217.553 126.47L303.201 603ZM303.173 36.6794C389.614 36.0198 488.568 50.0113 589.855 94.0303C603.398 69.7407 606.866 58.9998 606.866 58.9998C496.147 15.32 392.459 0.376875 303.173 0C213.868 0.376875 110.179 15.32 -0.530273 58.9998C-0.530273 58.9998 4.41221 72.2281 16.4802 94.0303C117.759 50.0113 216.703 36.0198 303.173 36.6794Z" fill="#E82127"/>
</g>
<defs>
<clipPath id="clip0_125_508">
<rect width="604.816" height="603" fill="white" transform="translate(0.764648)"/>
</clipPath>
</defs>
</svg>
