<svg width="72" height="73" viewBox="0 0 72 73" fill="none" xmlns="http://www.w3.org/2000/svg">
<rect y="0.400024" width="72" height="72" rx="12" fill="black"/>
<path d="M59.5444 37.474C64.6647 32.2875 64.6647 23.8881 59.5444 18.7015C55.0132 14.1117 47.8719 13.515 42.661 17.2879L42.516 17.3889C41.211 18.3344 40.9119 20.1703 41.8453 21.483C42.7788 22.7957 44.5913 23.1078 45.8872 22.1623L46.0322 22.0613C48.9413 19.9592 52.9197 20.2896 55.4391 22.8508C58.2938 25.7424 58.2938 30.424 55.4391 33.3156L45.271 43.6336C42.4163 46.5252 37.7944 46.5252 34.9397 43.6336C32.4113 41.0724 32.085 37.0426 34.1603 34.1051L34.26 33.9582C35.1935 32.6363 34.8853 30.8004 33.5894 29.8641C32.2935 28.9277 30.4719 29.2307 29.5475 30.5433L29.4478 30.6902C25.7141 35.9594 26.3032 43.193 30.8344 47.7828C35.9547 52.9693 44.2469 52.9693 49.3672 47.7828L59.5444 37.474ZM12.4557 35.326C7.33534 40.5125 7.33534 48.9119 12.4557 54.0984C16.9869 58.6883 24.1282 59.2849 29.3391 55.5121L29.4841 55.4111C30.7891 54.4656 31.0882 52.6297 30.1547 51.317C29.2213 50.0043 27.4088 49.6922 26.1128 50.6377L25.9678 50.7387C23.0588 52.8408 19.0803 52.5103 16.561 49.9492C13.7063 47.0484 13.7063 42.3668 16.561 39.4752L26.7291 29.1664C29.5838 26.2748 34.2057 26.2748 37.0603 29.1664C39.5888 31.7275 39.915 35.7574 37.8397 38.7041L37.74 38.851C36.8066 40.1728 37.1147 42.0088 38.4107 42.9451C39.7066 43.8814 41.5282 43.5785 42.4525 42.2658L42.5522 42.1189C46.286 36.8406 45.6969 29.607 41.1657 25.0172C36.0453 19.8307 27.7532 19.8307 22.6328 25.0172L12.4557 35.326Z" fill="white"/>
</svg>
