<svg width="163" height="31" viewBox="0 0 163 31" fill="none" xmlns="http://www.w3.org/2000/svg">
<path d="M10.784 24.48C9.76 24.48 8.71467 24.384 7.648 24.192C6.58133 24 5.536 23.7333 4.512 23.392C3.50933 23.0293 2.57067 22.6133 1.696 22.144L2.336 14.688H2.848L4.512 19.2C4.832 20.2453 5.312 21.1307 5.952 21.856C6.61333 22.56 7.392 23.0933 8.288 23.456C9.20533 23.8187 10.1973 24 11.264 24C12.224 24 13.0347 23.872 13.696 23.616C14.3787 23.3387 14.9013 22.9547 15.264 22.464C15.6267 21.9733 15.808 21.3867 15.808 20.704C15.808 19.936 15.616 19.2533 15.232 18.656C14.848 18.0373 14.1973 17.4187 13.28 16.8C12.384 16.16 11.168 15.4773 9.632 14.752C7.66933 13.728 6.112 12.8107 4.96 12C3.82933 11.1893 3.01867 10.3893 2.528 9.6C2.03733 8.78933 1.792 7.92533 1.792 7.008C1.792 6.112 1.99467 5.29067 2.4 4.544C2.82667 3.79733 3.43467 3.14667 4.224 2.592C5.01333 2.03733 5.96267 1.61067 7.072 1.312C8.18133 1.01333 9.41867 0.863998 10.784 0.863998C12.0213 0.863998 13.1733 0.970665 14.24 1.184C15.328 1.39733 16.3093 1.68533 17.184 2.048C18.08 2.41067 18.8267 2.82667 19.424 3.296L18.24 10.304H17.728L16.96 7.424C16.5333 5.97333 16.0107 4.81067 15.392 3.936C14.7733 3.04 14.048 2.38933 13.216 1.984C12.4053 1.55733 11.456 1.344 10.368 1.344C9.30133 1.344 8.384 1.472 7.616 1.728C6.86933 1.984 6.29333 2.35733 5.888 2.848C5.504 3.33867 5.312 3.92533 5.312 4.608C5.312 5.312 5.536 5.984 5.984 6.624C6.432 7.24267 7.18933 7.904 8.256 8.608C9.32267 9.29067 10.7627 10.0693 12.576 10.944C14.0053 11.6053 15.1893 12.2347 16.128 12.832C17.088 13.408 17.856 13.984 18.432 14.56C19.0293 15.136 19.456 15.7227 19.712 16.32C19.968 16.9173 20.096 17.5787 20.096 18.304C20.096 19.2 19.9147 19.9893 19.552 20.672C19.2107 21.3333 18.7413 21.9093 18.144 22.4C17.5467 22.8693 16.8533 23.264 16.064 23.584C15.2747 23.8827 14.4213 24.1067 13.504 24.256C12.608 24.4053 11.7013 24.48 10.784 24.48ZM27.5845 24.48C26.2405 24.48 25.2805 24.096 24.7045 23.328C24.1285 22.56 23.8405 21.408 23.8405 19.872V8.64H21.6645V8.32L23.8725 8L27.8405 2.752H28.3205V7.712L31.6165 8.32V8.64H28.3205V21.344C28.3205 22.0907 28.4272 22.6347 28.6405 22.976C28.8752 23.296 29.1845 23.456 29.5685 23.456C29.9098 23.456 30.2405 23.3493 30.5605 23.136C30.8805 22.9013 31.2005 22.6133 31.5205 22.272L31.6165 22.72C31.3818 22.9333 31.1045 23.1467 30.7845 23.36C30.4858 23.5733 30.1658 23.7653 29.8245 23.936C29.4832 24.1067 29.1205 24.2347 28.7365 24.32C28.3738 24.4267 27.9898 24.48 27.5845 24.48ZM42.6768 7.52C43.9568 7.52 45.0554 7.65867 45.9728 7.936C46.9114 8.21333 47.6794 8.64 48.2768 9.216C48.8741 9.792 49.3114 10.5173 49.5888 11.392C49.8661 12.2667 50.0048 13.2907 50.0048 14.464V22.912C50.0048 23.168 50.0581 23.3707 50.1648 23.52C50.2928 23.6693 50.4634 23.744 50.6768 23.744C50.8901 23.744 51.1461 23.68 51.4448 23.552C51.7648 23.424 52.0848 23.2533 52.4048 23.04V23.36C52.1274 23.5733 51.7968 23.7653 51.4128 23.936C51.0501 24.1067 50.6554 24.2347 50.2288 24.32C49.8234 24.4267 49.4181 24.48 49.0128 24.48C47.9461 24.48 47.0928 24.2027 46.4528 23.648C45.8341 23.072 45.5248 22.144 45.5248 20.864C45.5248 20.5227 45.5248 20.2773 45.5248 20.128C45.5248 19.9573 45.5248 19.8293 45.5248 19.744C45.5248 19.6373 45.5248 19.52 45.5248 19.392L45.2688 19.2C44.8634 20.032 44.3834 20.7787 43.8288 21.44C43.2954 22.08 42.6981 22.6347 42.0368 23.104C41.3754 23.552 40.6928 23.8933 39.9888 24.128C39.2848 24.3627 38.5808 24.48 37.8768 24.48C37.0874 24.48 36.3728 24.3413 35.7328 24.064C35.0928 23.7867 34.5808 23.3813 34.1968 22.848C33.8128 22.3147 33.6208 21.664 33.6208 20.896C33.6208 19.104 34.6341 17.728 36.6608 16.768C38.7088 15.7867 41.6634 15.296 45.5248 15.296C45.5248 13.4827 45.3968 12.0533 45.1408 11.008C44.8848 9.96267 44.4368 9.216 43.7968 8.768C43.1781 8.32 42.2821 8.096 41.1088 8.096C40.4048 8.096 39.7754 8.17067 39.2208 8.32C38.6661 8.448 38.2288 8.59733 37.9088 8.768C37.5888 8.93867 37.4288 9.09867 37.4288 9.248C37.4288 9.35467 37.5461 9.472 37.7808 9.6C38.0154 9.728 38.4208 9.89867 38.9968 10.112C40.1274 10.5173 40.6927 11.1253 40.6927 11.936C40.6927 12.6187 40.3834 13.152 39.7648 13.536C39.1461 13.8987 38.3888 14.08 37.4928 14.08C36.6181 14.08 35.8714 13.8987 35.2528 13.536C34.6554 13.152 34.3568 12.5973 34.3568 11.872C34.3568 11.3387 34.5808 10.816 35.0288 10.304C35.4768 9.792 36.0848 9.32267 36.8528 8.896C37.6421 8.46933 38.5381 8.13867 39.5408 7.904C40.5434 7.648 41.5888 7.52 42.6768 7.52ZM45.5248 15.68C43.7328 15.68 42.2608 15.9147 41.1088 16.384C39.9568 16.8533 39.1034 17.4613 38.5488 18.208C37.9941 18.9333 37.7168 19.7227 37.7168 20.576C37.7168 21.088 37.8128 21.5147 38.0048 21.856C38.1968 22.176 38.4528 22.4213 38.7728 22.592C39.0928 22.7413 39.4661 22.816 39.8928 22.816C40.3621 22.816 40.8528 22.72 41.3648 22.528C41.8981 22.336 42.4208 22.0373 42.9328 21.632C43.4448 21.2267 43.9248 20.7147 44.3728 20.096C44.8421 19.4773 45.2261 18.7307 45.5248 17.856V15.68ZM61.2263 30.88C60.1169 30.88 59.1036 30.7627 58.1863 30.528C57.2689 30.2933 56.4796 29.9733 55.8183 29.568C55.1569 29.184 54.6449 28.7467 54.2823 28.256C53.9196 27.7653 53.7383 27.264 53.7383 26.752C53.7383 26.2187 53.8663 25.7493 54.1223 25.344C54.3783 24.96 54.7303 24.6613 55.1783 24.448C55.6263 24.2347 56.1169 24.128 56.6503 24.128C57.5249 24.128 58.2183 24.32 58.7303 24.704C59.2423 25.088 59.4983 25.5893 59.4983 26.208C59.4983 26.6987 59.3916 27.0933 59.1783 27.392C58.9863 27.712 58.7303 27.968 58.4103 28.16C58.1116 28.352 57.8023 28.5013 57.4823 28.608C57.1623 28.7147 56.8956 28.8107 56.6823 28.896C56.4903 28.9813 56.3943 29.088 56.3943 29.216C56.3943 29.408 56.5756 29.6 56.9383 29.792C57.3223 29.984 57.8236 30.1333 58.4423 30.24C59.0823 30.368 59.7649 30.432 60.4903 30.432C61.6636 30.432 62.6876 30.2507 63.5623 29.888C64.4583 29.5467 65.1409 29.056 65.6103 28.416C66.1009 27.7973 66.3463 27.0827 66.3463 26.272C66.3463 25.5467 66.1436 24.9173 65.7383 24.384C65.3543 23.872 64.7463 23.456 63.9143 23.136C63.0823 22.7947 61.9836 22.5493 60.6183 22.4C59.2529 22.2507 57.6103 22.176 55.6903 22.176V21.696L59.8183 18.464L60.1703 18.72L58.1223 20.384L58.3143 20.672C60.0209 20.672 61.5463 20.736 62.8903 20.864C64.2556 20.992 65.4396 21.1947 66.4423 21.472C67.4449 21.728 68.2663 22.0587 68.9062 22.464C69.5676 22.848 70.0583 23.3173 70.3783 23.872C70.6983 24.4267 70.8583 25.0453 70.8583 25.728C70.8583 26.9013 70.4636 27.8613 69.6743 28.608C68.8849 29.376 67.7649 29.9413 66.3143 30.304C64.8849 30.688 63.1889 30.88 61.2263 30.88ZM62.2503 18.976C61.1196 18.976 60.0529 18.8693 59.0503 18.656C58.0476 18.4427 57.1623 18.112 56.3943 17.664C55.6476 17.216 55.0503 16.6613 54.6023 16C54.1756 15.3173 53.9622 14.528 53.9622 13.632C53.9622 12.736 54.1756 11.9147 54.6023 11.168C55.0289 10.4213 55.6156 9.78133 56.3623 9.248C57.1303 8.69333 58.0156 8.26667 59.0183 7.968C60.0423 7.66933 61.1516 7.52 62.3463 7.52C63.3916 7.52 64.4049 7.66933 65.3863 7.968C66.3889 8.24533 67.2849 8.65067 68.0743 9.184C68.8849 9.71733 69.5249 10.3573 69.9943 11.104C70.4636 11.8507 70.6983 12.6933 70.6983 13.632C70.6983 14.336 70.5276 15.0187 70.1863 15.68C69.8663 16.32 69.3649 16.896 68.6823 17.408C67.9996 17.8987 67.1249 18.2827 66.0583 18.56C64.9916 18.8373 63.7223 18.976 62.2503 18.976ZM62.3463 18.592C63.1783 18.592 63.8716 18.4107 64.4263 18.048C64.9809 17.6853 65.4076 17.1627 65.7063 16.48C66.0049 15.776 66.1543 14.944 66.1543 13.984C66.1543 12.8747 66.0156 11.8613 65.7383 10.944C65.4609 10.0267 65.0343 9.29067 64.4583 8.736C63.9036 8.18133 63.1996 7.904 62.3463 7.904C61.5143 7.904 60.8103 8.18133 60.2343 8.736C59.6583 9.29067 59.2316 10.0267 58.9543 10.944C58.6769 11.8613 58.5383 12.8747 58.5383 13.984C58.5383 14.9227 58.6769 15.744 58.9543 16.448C59.2529 17.1307 59.6903 17.664 60.2663 18.048C60.8423 18.4107 61.5356 18.592 62.3463 18.592ZM64.8743 8.224L62.9863 7.68C63.4556 7.65867 63.9463 7.584 64.4583 7.456C64.9703 7.30667 65.4716 7.12533 65.9623 6.912C66.4529 6.67733 66.9116 6.44267 67.3383 6.208C67.7863 5.952 68.1916 5.71733 68.5543 5.504C68.9169 5.26933 69.2263 5.06667 69.4823 4.896L70.6343 7.68H64.8743V8.224ZM82.391 7.52C84.1617 7.52 85.623 7.872 86.775 8.576C87.927 9.28 88.791 10.2187 89.367 11.392C89.943 12.5653 90.231 13.888 90.231 15.36H78.103V15.04L86.071 14.624C86.071 13.1947 85.943 11.9787 85.687 10.976C85.431 9.97333 85.0257 9.216 84.471 8.704C83.9377 8.17067 83.2337 7.904 82.359 7.904C81.5057 7.904 80.759 8.18133 80.119 8.736C79.5003 9.29067 79.0203 10.1333 78.679 11.264C78.359 12.3733 78.199 13.8027 78.199 15.552C78.199 16.512 78.3163 17.44 78.551 18.336C78.807 19.2107 79.1697 20.0107 79.639 20.736C80.1297 21.44 80.727 22.0053 81.431 22.432C82.135 22.8373 82.9563 23.04 83.895 23.04C84.471 23.04 85.047 22.9547 85.623 22.784C86.199 22.6133 86.743 22.368 87.255 22.048C87.767 21.728 88.2363 21.344 88.663 20.896C89.0897 20.4267 89.4417 19.8827 89.719 19.264L90.071 19.584C89.5803 20.5867 89.015 21.408 88.375 22.048C87.7563 22.688 87.0843 23.1893 86.359 23.552C85.6337 23.8933 84.8977 24.128 84.151 24.256C83.4043 24.4053 82.6683 24.48 81.943 24.48C80.6203 24.48 79.447 24.256 78.423 23.808C77.399 23.36 76.5243 22.752 75.799 21.984C75.095 21.1947 74.551 20.3093 74.167 19.328C73.8043 18.3253 73.623 17.2907 73.623 16.224C73.623 14.88 73.8363 13.6747 74.263 12.608C74.711 11.5413 75.319 10.6347 76.087 9.888C76.8763 9.12 77.8043 8.53333 78.871 8.128C79.9377 7.72267 81.111 7.52 82.391 7.52ZM92.722 24V23.68L94.578 23.36V1.984L92.722 1.664V1.344H101.17V1.664L99.282 1.984V23.52H104.562C105.074 23.52 105.533 23.3813 105.938 23.104C106.343 22.8053 106.706 22.336 107.026 21.696C107.367 21.0347 107.687 20.1813 107.986 19.136L108.818 15.104H109.394L110.386 24H92.722ZM116.304 5.12C115.685 5.12 115.13 5.03467 114.64 4.864C114.17 4.672 113.797 4.416 113.52 4.096C113.242 3.75467 113.104 3.37067 113.104 2.944C113.104 2.51733 113.242 2.144 113.52 1.824C113.797 1.48267 114.17 1.22667 114.64 1.056C115.13 0.864 115.685 0.768 116.304 0.768C116.944 0.768 117.498 0.864 117.968 1.056C118.458 1.22667 118.842 1.48267 119.12 1.824C119.397 2.144 119.536 2.51733 119.536 2.944C119.536 3.37067 119.397 3.75467 119.12 4.096C118.842 4.416 118.458 4.672 117.968 4.864C117.498 5.03467 116.944 5.12 116.304 5.12ZM112.496 24V23.68L114.224 23.36V9.024H112.336V8.672L118.704 7.52V23.36L120.432 23.68V24H112.496ZM142.586 23.68V24H134.554V23.68L136.25 23.36V12.512C136.25 11.3813 136.058 10.528 135.674 9.952C135.29 9.376 134.735 9.088 134.01 9.088C133.519 9.088 133.018 9.28 132.506 9.664C132.015 10.0267 131.535 10.5067 131.066 11.104C130.618 11.68 130.212 12.2773 129.85 12.896C129.487 13.5147 129.199 14.08 128.986 14.592V23.36L130.682 23.68V24H122.778V23.68L124.506 23.36V9.024H122.65V8.672L128.986 7.52V12.768L129.242 12.992C129.775 11.904 130.372 10.9547 131.034 10.144C131.716 9.312 132.474 8.672 133.306 8.224C134.138 7.75467 135.055 7.52 136.058 7.52C136.932 7.52 137.668 7.65867 138.266 7.936C138.863 8.192 139.332 8.576 139.674 9.088C140.036 9.57867 140.303 10.176 140.474 10.88C140.644 11.5627 140.73 12.32 140.73 13.152V23.36L142.586 23.68ZM150.673 23.36L152.401 23.68V24H144.465V23.68L146.193 23.36V1.664H144.305V1.312L150.673 0.159998V23.36ZM150.353 15.264V14.816C150.993 14.7307 151.707 14.528 152.497 14.208C153.286 13.8667 154.097 13.4827 154.929 13.056C155.611 12.7147 156.177 12.4053 156.625 12.128C157.073 11.8507 157.414 11.616 157.649 11.424C157.883 11.232 158.001 11.072 158.001 10.944C158.001 10.816 157.894 10.7093 157.681 10.624C157.467 10.5387 157.19 10.464 156.849 10.4C156.507 10.3147 156.145 10.2187 155.761 10.112C155.398 9.984 155.046 9.83467 154.705 9.664C154.363 9.472 154.086 9.23733 153.873 8.96C153.659 8.66133 153.553 8.30933 153.553 7.904C153.553 7.47733 153.681 7.104 153.937 6.784C154.214 6.44267 154.577 6.176 155.025 5.984C155.494 5.77067 156.027 5.664 156.625 5.664C157.286 5.664 157.862 5.78133 158.353 6.016C158.865 6.25067 159.259 6.58133 159.537 7.008C159.835 7.41333 159.985 7.88267 159.985 8.416C159.985 9.03467 159.793 9.62133 159.409 10.176C159.046 10.7307 158.481 11.2853 157.713 11.84C157.286 12.16 156.753 12.512 156.113 12.896C155.473 13.2587 154.737 13.6747 153.905 14.144V14.496H156.561C156.945 15.4133 157.275 16.2453 157.553 16.992C157.851 17.7387 158.118 18.4213 158.353 19.04C158.737 19.8507 159.089 20.5653 159.409 21.184C159.729 21.7813 160.027 22.272 160.305 22.656C160.582 23.04 160.838 23.296 161.073 23.424C161.179 23.4667 161.275 23.488 161.361 23.488C161.467 23.488 161.563 23.456 161.649 23.392V23.776C161.371 23.9467 161.094 24.0853 160.817 24.192C160.561 24.2987 160.283 24.3733 159.985 24.416C159.686 24.4587 159.355 24.48 158.993 24.48C158.289 24.48 157.638 24.3093 157.041 23.968C156.443 23.6053 155.878 23.072 155.345 22.368C154.833 21.6427 154.342 20.7467 153.873 19.68C153.574 18.9333 153.265 18.208 152.945 17.504C152.646 16.8 152.337 16.0533 152.017 15.264H150.353Z" fill="black"/>
</svg>
