<svg width="19" height="18" viewBox="0 0 19 18" fill="none" xmlns="http://www.w3.org/2000/svg">
<path d="M17.7565 16.0845L14.2723 12.5989C16.8793 9.11504 16.1685 4.17737 12.6846 1.57036C9.20073 -1.03665 4.26307 -0.325801 1.65606 3.15807C-0.950954 6.64195 -0.240107 11.5796 3.24377 14.1866C6.0423 16.2808 9.88604 16.2808 12.6846 14.1866L16.1702 17.6723C16.6083 18.1103 17.3184 18.1103 17.7564 17.6723C18.1945 17.2342 18.1945 16.524 17.7564 16.086L17.7565 16.0845ZM7.99323 13.5139C4.89693 13.5139 2.38691 11.0038 2.38691 7.90754C2.38691 4.81124 4.89693 2.30122 7.99323 2.30122C11.0895 2.30122 13.5996 4.81124 13.5996 7.90754C13.5963 11.0024 11.0882 13.5106 7.99323 13.5139Z" fill="#606060"/>
</svg>
