<svg width="16" height="14" viewBox="0 0 16 14" fill="none" xmlns="http://www.w3.org/2000/svg">
<path d="M14.7365 1.59762C14.3368 1.1963 13.8615 0.878205 13.3381 0.661729C12.8147 0.445254 12.2536 0.334695 11.6871 0.336446C10.5389 0.336446 9.45655 0.788211 8.63773 1.59762L8.4589 1.77645L8.28008 1.59762C7.48008 0.788211 6.39773 0.336446 5.24949 0.336446C4.39674 0.336355 3.56311 0.58914 2.85403 1.06283C2.14495 1.53652 1.59226 2.20985 1.26585 2.99766C0.939444 3.78546 0.853983 4.65237 1.02027 5.48875C1.18657 6.32513 1.59714 7.09341 2.20008 7.69645L7.95067 13.447C8.09184 13.5882 8.28008 13.6635 8.46831 13.6635C8.65655 13.6635 8.84478 13.5882 8.98596 13.447L14.7365 7.69645C15.1371 7.29699 15.4548 6.82243 15.6716 6.29997C15.8884 5.77751 16 5.2174 16 4.65174C16 4.08608 15.8884 3.52597 15.6716 3.00351C15.4548 2.48105 15.1371 2.00649 14.7365 1.60703V1.59762ZM13.7013 6.66115L8.4589 11.9035L3.22596 6.66115C2.68949 6.12468 2.38831 5.40939 2.38831 4.64703C2.38831 3.88468 2.68949 3.16939 3.22596 2.63292C3.76243 2.09645 4.47773 1.79527 5.24008 1.79527C6.00243 1.79527 6.71773 2.09645 7.2542 2.63292L7.94126 3.31998C8.22361 3.60233 8.68478 3.60233 8.97655 3.31998L9.66361 2.63292C10.2001 2.09645 10.9154 1.79527 11.6777 1.79527C12.4401 1.79527 13.1554 2.09645 13.6918 2.63292C14.2253 3.16938 14.5248 3.89518 14.5248 4.65174C14.5248 5.4083 14.2253 6.1341 13.6918 6.67056L13.7013 6.66115Z" fill="black"/>
</svg>
